<svg xmlns="http://www.w3.org/2000/svg" xml:space="preserve" width="157.549" height="50.659" style="shape-rendering:geometricPrecision;text-rendering:geometricPrecision;image-rendering:optimizeQuality;fill-rule:evenodd;clip-rule:evenodd" viewBox="0 0 868.98 279.42"><defs><style>.fil3,.fil4{fill:#e43024;fill-rule:nonzero}.fil4{fill:#828487}</style></defs><g id="Слой_x0020_1"><g id="_2429915849712"><path d="M55.46 164.85c-.34-.14-.64-.32-.92-.55-11.59-7.03-18.26-15.41-18.31-24.53v-.19c.05-9.12 6.72-17.5 18.31-24.53.27-.23.58-.42.92-.55 5.43-3.2 11.9-6.11 19.22-8.68 22.68-7.96 53.92-12.89 88.36-12.89 34.43 0 65.67 4.93 88.35 12.89 7.32 2.57 13.78 5.48 19.22 8.68.34.13.65.32.92.55 11.59 7.03 18.26 15.42 18.3 24.53v.19c-.05 9.12-6.72 17.5-18.31 24.53-.27.23-.58.42-.92.55-5.43 3.19-11.9 6.11-19.22 8.68-22.68 7.96-53.92 12.88-88.35 12.88-34.43 0-65.68-4.92-88.36-12.88-7.32-2.57-13.78-5.49-19.22-8.68zm104.12 14.54v-14.3h-26.94c.8.97 1.64 1.91 2.52 2.8 6.37 6.42 14.91 10.67 24.42 11.5zm0-21.2v-15.08h-35.83c.46 5.41 1.98 10.51 4.35 15.08h31.48zm0-21.98v-15.07H128.1a40.09 40.09 0 0 0-4.35 15.07h35.83zm0-21.97v-14.3c-9.51.83-18.05 5.07-24.42 11.5-.88.89-1.72 1.83-2.52 2.8h26.94zm6.9-14.3v14.3h26.93c-.79-.97-1.64-1.91-2.52-2.8-6.37-6.43-14.91-10.67-24.42-11.5zm0 21.2v15.07h35.83a40.09 40.09 0 0 0-4.35-15.07h-31.48zm0 21.98v15.08h31.48c2.37-4.57 3.89-9.66 4.35-15.08h-35.83zm0 21.98v14.3c9.51-.83 18.04-5.07 24.42-11.5.88-.89 1.72-1.82 2.52-2.8h-26.93zm24.29-62.84c1.78 1.34 3.46 2.82 5.03 4.41 2.28 2.3 4.32 4.84 6.09 7.58h23.15c-1.24-.73-2.53-1.44-3.87-2.13-8.47-4.35-18.83-7.74-30.4-9.86zm14.79 18.88c2.01 4.68 3.28 9.75 3.67 15.07h34.48c-.98-5.37-4.2-10.47-9.2-15.07h-28.94zm3.67 21.98c-.38 5.32-1.66 10.4-3.67 15.08h28.94c5-4.6 8.22-9.7 9.2-15.08h-34.48zm-7.34 21.98a48.335 48.335 0 0 1-6.08 7.58 45.666 45.666 0 0 1-5.03 4.4c11.57-2.11 21.92-5.5 30.4-9.85 1.34-.68 2.63-1.4 3.87-2.13H201.9zm-66.59 11.97a46.942 46.942 0 0 1-11.12-11.98h-23.15c1.24.73 2.53 1.44 3.87 2.13 8.47 4.35 18.83 7.74 30.4 9.85zm-14.8-18.88a46.789 46.789 0 0 1-3.67-15.08H82.36c.97 5.37 4.19 10.48 9.2 15.08h28.94zm-3.67-21.98c.39-5.32 1.66-10.39 3.67-15.07H91.56c-5 4.6-8.22 9.7-9.19 15.07h34.47zm7.34-21.97c1.77-2.74 3.81-5.28 6.09-7.58 1.57-1.58 3.25-3.06 5.03-4.41-11.57 2.11-21.93 5.51-30.4 9.86-1.34.68-2.63 1.39-3.87 2.13h23.15zm98.79-8.91c.45.22.89.44 1.33.67 4.81 2.47 9.09 5.24 12.73 8.25h17.29c-1.67-.67-3.4-1.31-5.2-1.94-7.74-2.71-16.54-5.07-26.15-6.97zm20.93 15.81c3.72 4.66 6.08 9.74 6.78 15.07h31.77c-1.49-5.34-6.38-10.44-13.97-15.07h-24.58zm6.78 21.98c-.71 5.35-3.06 10.42-6.78 15.08h24.58c7.58-4.63 12.48-9.74 13.97-15.08h-31.77zm-13.65 21.98c-3.64 3.01-7.92 5.78-12.73 8.25-.44.23-.89.44-1.33.66 9.62-1.91 18.41-4.26 26.15-6.98 1.79-.63 3.53-1.27 5.2-1.94h-17.29zm-133.93 8.91c-.45-.22-.89-.44-1.33-.66-4.82-2.47-9.09-5.24-12.73-8.25H71.74c1.67.67 3.4 1.31 5.19 1.94 7.74 2.72 16.53 5.07 26.16 6.98zM82.16 158.2c-3.73-4.66-6.07-9.73-6.79-15.08H43.6c1.49 5.34 6.39 10.45 13.97 15.08h24.58zm-6.79-21.98c.71-5.34 3.06-10.41 6.79-15.07H57.58c-7.58 4.63-12.48 9.74-13.97 15.07h31.77zm13.65-21.97c3.65-3.01 7.92-5.78 12.74-8.25.44-.23.88-.44 1.33-.67-9.62 1.9-18.41 4.26-26.16 6.97-1.79.63-3.53 1.28-5.2 1.94h17.29z" style="fill:#cececd;fill-rule:nonzero"/><path d="m54.35 164.62.4-.65.05.04.02.02.03.02.02.01.01.01.03.02.03.03.01.01.03.02.02.02.02.01.03.02.02.01.02.01.03.02.02.01.03.02.04.02.02.01.02.01.02.01.04.02.03.02.02.01.03.02.02.01.03.01.02.01.03.01.04.02.02.01.02.01.03.01-.29.71-.03-.01-.04-.02-.04-.02-.02-.01-.04-.01-.04-.02-.03-.01-.04-.02-.03-.02-.04-.02-.03-.02-.02-.01-.04-.02-.04-.02-.04-.02-.02-.01-.03-.02-.04-.02-.03-.02-.04-.02-.03-.02-.02-.01-.04-.03-.03-.03-.03-.02-.04-.03-.02-.01-.02-.01-.04-.03-.03-.03-.03-.02-.03-.02.05.04zm.4-.65.03.02.02.02-.05-.04zm-18.89-24.2h.76l.03.84.06.83.1.83.14.82.17.82.21.81.25.81.28.8.32.8.35.79.39.79.42.78.46.78.49.78.53.77.56.76.6.76.63.75.66.75.69.74.73.73.76.73.79.72.82.72.85.71.89.7.92.7.95.69.98.68 1.01.68 1.04.67 1.07.66-.4.65-1.08-.67-1.05-.68-1.02-.68-.99-.69-.96-.7-.93-.7-.9-.72-.87-.72-.84-.73-.8-.73-.78-.74-.74-.75-.71-.75-.68-.77-.64-.77-.61-.78-.58-.78-.54-.79-.51-.8-.47-.8-.44-.81-.4-.82-.36-.82-.33-.83-.29-.83-.26-.84-.22-.85-.18-.85-.14-.86-.1-.86-.06-.87-.03-.87zm0 0zm.76-.19v.19h-.76v-.19h.76zm-.76 0zm18.45-24.83.49.59-.05.03-1.07.66-1.04.67-1.01.68-.98.68-.95.69-.92.7-.89.7-.85.71-.82.72-.79.72-.76.73-.73.73-.69.74-.66.75-.63.75-.6.76-.56.76-.53.77-.49.78-.46.78-.42.78-.39.79-.35.79-.32.8-.28.8-.25.81-.21.81-.17.82-.14.82-.1.83-.06.83-.03.84h-.76l.03-.87.06-.87.1-.86.14-.85.18-.85.22-.85.26-.84.29-.83.33-.83.36-.82.4-.82.44-.81.47-.8.51-.8.54-.79.58-.78.61-.78.64-.77.68-.76.71-.76.74-.75.78-.74.8-.74.84-.73.87-.72.9-.72.93-.7.96-.7.99-.69 1.02-.68 1.05-.68 1.08-.67-.05.03zm.49.59-.02.01-.03.02.05-.03zm.48-1.18.39.66-.05.03-.03.01-.02.01-.03.01-.03.01-.02.01-.03.01-.03.01-.03.01-.02.01-.02.01-.03.01-.02.01-.03.02-.03.02-.03.02-.02.01-.02.01-.03.02-.02.01-.03.02-.03.02-.02.01-.03.02-.02.01-.03.02-.02.01-.02.01-.03.03-.02.02-.03.02-.03.02-.02.02-.49-.59.03-.03.03-.02.03-.02.03-.03.02-.02.03-.03.03-.02.03-.02.04-.03.03-.02.03-.02.03-.02.03-.02.04-.02.03-.02.04-.02.04-.02.03-.02.03-.02.03-.02.04-.02.03-.01.04-.02.04-.02.03-.01.04-.02.03-.01.04-.02.03-.01.03-.01.04-.02.03-.01-.05.03zm.39.66-.03.02-.03.01.05-.03zm18.9-9.37.25.72-.68.24-.68.24-.67.24-.67.25-.66.25-.66.25-.65.25-.64.26-.64.25-.63.26-.63.26-.63.26-.62.26-.61.26-.61.27-.6.27-.6.27-.59.27-.58.28-.58.28-.58.28-.57.28-.56.28-.56.28-.55.29-.55.29-.54.29-.53.29-.53.29-.52.29-.52.3-.51.3-.39-.66.51-.3.52-.3.53-.3.54-.3.54-.29.54-.29.55-.29.55-.29.56-.29.57-.28.58-.28.58-.28.58-.28.59-.28.6-.28.6-.27.61-.27.61-.27.62-.27.62-.26.63-.26.63-.26.64-.26.65-.26.65-.26.65-.25.66-.25.67-.25.67-.25.68-.25.68-.24.69-.24zm88.48-12.91v.76l-3.21.01-3.2.04-3.17.07-3.15.1-3.13.13-3.11.15-3.08.18-3.06.21-3.03.23-3 .26-2.97.28-2.94.31-2.91.33-2.88.36-2.85.38-2.82.4-2.78.43-2.75.45-2.71.47-2.67.5-2.64.52-2.6.54-2.55.56-2.51.58-2.47.6-2.43.62-2.38.64-2.34.66-2.29.68-2.24.7-2.2.72-2.15.74-.25-.72 2.16-.74 2.2-.72 2.26-.7 2.3-.68 2.35-.67 2.39-.64 2.44-.63 2.48-.6 2.52-.58 2.56-.56 2.6-.54 2.64-.52 2.68-.5 2.72-.47 2.76-.45 2.79-.43 2.82-.41 2.86-.38 2.89-.36 2.92-.33 2.95-.31 2.98-.28 3.01-.26 3.04-.23 3.06-.21 3.09-.18 3.11-.15 3.14-.13 3.16-.1 3.18-.07 3.2-.04 3.22-.01zm88.47 12.91-.25.72-2.15-.74-2.2-.72-2.24-.7-2.29-.68-2.34-.66-2.38-.64-2.43-.62-2.47-.6-2.51-.58-2.55-.56-2.6-.54-2.64-.52-2.67-.5-2.71-.47-2.75-.45-2.78-.43-2.81-.4-2.85-.38-2.88-.36-2.91-.33-2.94-.31-2.97-.28-3-.26-3.03-.23-3.06-.21-3.08-.18-3.11-.15-3.13-.13-3.15-.1-3.17-.07-3.2-.04-3.21-.01v-.76l3.22.01 3.2.04 3.18.07 3.16.1 3.14.13 3.11.15 3.09.18 3.06.21 3.04.23 3.01.26 2.98.28 2.95.31 2.92.33 2.89.36 2.86.38 2.82.41 2.79.43 2.76.45 2.72.47 2.68.5 2.64.52 2.6.54 2.56.56 2.52.58 2.48.6 2.44.63 2.39.64 2.35.67 2.3.68 2.26.7 2.2.72 2.16.74zm19.23 8.68-.28.71-.05-.03-.51-.3-.52-.3-.52-.29-.53-.29-.53-.29-.54-.29-.55-.29-.55-.29-.56-.28-.56-.28-.57-.28-.57-.28-.58-.28-.59-.28-.59-.27-.6-.27-.6-.27-.6-.27-.61-.26-.62-.26-.62-.26-.63-.26-.64-.26-.64-.25-.65-.26-.65-.25-.66-.25-.66-.25-.67-.25-.67-.24-.68-.24-.68-.24.25-.72.69.24.68.24.68.25.67.25.67.25.66.25.65.25.65.26.64.26.64.26.63.26.63.26.62.26.62.27.61.27.61.27.6.27.6.28.59.28.59.28.58.28.57.28.57.28.56.29.55.29.55.29.54.29.54.29.54.3.53.3.52.3.51.3-.05-.03zm-.28.71-.03-.01-.03-.02.05.03zm1.26-.13-.4.65-.05-.03-.02-.02-.02-.02-.03-.03-.03-.02-.02-.02-.02-.01-.03-.02-.03-.02-.01-.01-.03-.02-.03-.02-.02-.01-.02-.02-.03-.02-.03-.02-.02-.01-.02-.01-.03-.02-.03-.02-.03-.01-.02-.01-.04-.02-.02-.01-.02-.01-.04-.02-.03-.01-.03-.01-.02-.01-.03-.01-.03-.01-.02-.01-.03-.01.28-.71.03.01.04.02.03.01.03.01.04.02.04.02.03.01.03.01.04.02.04.02.02.01.04.02.03.02.03.02.03.02.04.02.04.02.03.02.03.02.04.02.03.02.02.01.03.02.04.03.03.02.03.02.04.03.03.03.03.02.02.02.03.03.03.03-.05-.03zm-.4.65-.02-.01-.03-.02.05.03zm18.88 24.21h-.76l-.02-.84-.06-.83-.1-.83-.13-.82-.17-.82-.21-.82-.24-.81-.28-.8-.32-.8-.35-.79-.39-.79-.43-.78-.46-.78-.49-.78-.53-.77-.56-.76-.6-.76-.63-.75-.66-.75-.69-.74-.73-.73-.76-.73-.79-.72-.83-.72-.85-.71-.89-.7-.92-.7-.95-.69-.98-.68-1.01-.68-1.04-.67-1.07-.66.4-.65 1.08.67 1.05.68 1.02.68.99.69.96.7.93.7.9.72.87.72.84.73.8.74.77.74.74.75.71.76.68.76.64.77.61.78.58.78.54.79.51.8.47.8.44.81.4.82.36.82.33.83.29.83.25.84.22.84.18.85.14.85.1.86.06.87.02.87zm0 0zm-.76.19v-.19h.76v.19h-.76zm.76 0zm-18.44 24.82-.5-.58.05-.04 1.07-.66 1.04-.67 1.01-.68.98-.68.95-.69.92-.7.89-.7.85-.71.83-.72.79-.72.76-.73.73-.73.69-.74.66-.75.63-.75.59-.76.56-.76.53-.77.49-.78.46-.78.42-.78.39-.79.35-.79.32-.8.28-.8.24-.81.21-.81.17-.82.13-.82.1-.83.06-.83.02-.84h.76l-.02.87-.06.87-.1.86-.14.86-.18.85-.22.85-.26.84-.29.83-.33.83-.37.82-.4.82-.44.81-.47.8-.51.8-.54.79-.58.78-.61.78-.64.77-.68.77-.71.75-.74.75-.78.74-.8.73-.84.73-.87.72-.9.72-.93.7-.96.7-.99.69-1.02.68-1.05.68-1.08.67.05-.04zm-.5-.58.02-.02.03-.02-.05.04zm-.47 1.17-.39-.66.05-.03.03-.01.02-.01.02-.01.04-.02.03-.01.02-.01.03-.01.02-.01.03-.02.03-.01.02-.01.04-.02.02-.01.03-.01.01-.01.03-.02.04-.02.02-.01.03-.02.02-.01.02-.01.03-.02.02-.01.02-.02.02-.01.02-.01.04-.03.02-.01.02-.01.02-.01.02-.02.03-.02.5.58-.02.02-.03.03-.03.03-.03.03-.03.02-.01.01-.03.03-.03.02-.03.03-.04.03-.02.01-.03.02-.04.02-.03.02-.04.02-.02.01-.03.02-.04.03-.03.02-.04.02-.02.01-.04.02-.03.01-.03.02-.04.02-.03.01-.05.02-.03.01-.02.01-.04.02-.04.02-.03.01.05-.03zm-.39-.66.02-.01.03-.01-.05.03zm-18.9 9.37-.25-.72.68-.24.68-.24.67-.24.67-.25.66-.25.66-.25.65-.25.65-.25.64-.26.64-.26.63-.26.62-.26.62-.27.62-.26.6-.27.6-.27.6-.27.59-.27.59-.28.58-.28.57-.28.57-.28.56-.28.56-.28.55-.29.55-.29.54-.29.53-.29.53-.29.52-.29.52-.3.51-.3.39.66-.51.3-.52.3-.53.29-.53.3-.54.29-.54.29-.55.29-.55.29-.56.29-.57.28-.57.28-.58.28-.59.28-.59.28-.6.28-.6.27-.61.27-.61.27-.62.27-.62.27-.63.26-.63.26-.64.26-.64.26-.65.25-.65.25-.66.25-.67.25-.67.25-.68.25-.68.24-.69.24zm-88.47 12.9v-.76l3.21-.01 3.2-.04 3.17-.07 3.15-.1 3.13-.13 3.11-.15 3.08-.18 3.06-.21 3.03-.23 3-.26 2.97-.29 2.94-.31 2.91-.33 2.88-.36 2.85-.38 2.81-.4 2.78-.43 2.75-.45 2.71-.47 2.67-.5 2.64-.52 2.6-.54 2.55-.56 2.51-.58 2.47-.6 2.43-.62 2.38-.64 2.34-.66 2.29-.68 2.24-.7 2.2-.72 2.15-.74.25.72-2.16.74-2.2.72-2.26.7-2.3.68-2.35.67-2.39.64-2.44.63-2.48.6-2.52.58-2.56.56-2.6.54-2.64.52-2.68.5-2.72.47-2.76.45-2.79.43-2.82.41-2.86.38-2.89.36-2.92.33-2.95.31-2.98.29-3.01.26-3.04.23-3.06.21-3.09.18-3.11.15-3.14.13-3.16.1-3.18.07-3.2.04-3.22.01zm-88.48-12.9.25-.72 2.15.74 2.2.72 2.24.7 2.29.68 2.34.66 2.38.64 2.43.62 2.47.6 2.51.58 2.55.56 2.6.54 2.64.52 2.67.5 2.71.47 2.75.45 2.78.43 2.82.4 2.85.38 2.88.36 2.91.33 2.94.31 2.97.29 3 .26 3.03.23 3.06.21 3.08.18 3.11.15 3.13.13 3.15.1 3.17.07 3.2.04 3.21.01v.76l-3.22-.01-3.2-.04-3.18-.07-3.16-.1-3.14-.13-3.11-.15-3.09-.18-3.06-.21-3.04-.23-3.01-.26-2.98-.29-2.95-.31-2.92-.33-2.89-.36-2.86-.38-2.82-.41-2.79-.43-2.76-.45-2.72-.47-2.68-.5-2.64-.52-2.6-.54-2.56-.56-2.52-.58-2.48-.6-2.44-.63-2.39-.64-2.35-.67-2.3-.68-2.26-.7-2.2-.72-2.16-.74zm-19.24-8.69.29-.71.05.03.51.3.52.3.52.29.53.29.53.29.54.29.55.29.55.29.56.28.56.28.57.28.58.28.58.28.58.28.59.27.6.27.6.27.61.27.61.27.62.26.62.26.63.26.63.26.64.26.64.25.65.25.66.25.66.25.67.25.67.24.68.24.68.24-.25.72-.69-.24-.68-.24-.68-.25-.67-.25-.67-.25-.66-.25-.65-.25-.65-.25-.65-.26-.64-.26-.63-.26-.63-.26-.62-.27-.61-.27-.61-.27-.61-.27-.6-.27-.6-.28-.59-.28-.58-.28-.58-.28-.57-.28-.57-.28-.56-.29-.55-.29-.55-.29-.54-.29-.54-.29-.53-.3-.53-.29-.52-.3-.51-.3.05.03zm.29-.71.02.01.03.01-.05-.03zm104.36.6v14.3h-.76v-14.3l.38-.38.38.38zm-.38-.38h.38v.38l-.38-.38zm-26.94 0h26.94v.76h-26.94l-.3-.14.3-.62zm-.3.62-.51-.62h.81l-.3.62zm3.09 2.29-.54.54-.09-.08-.08-.09-.08-.08-.08-.08-.09-.09-.08-.08-.08-.08-.09-.09-.08-.09-.08-.08-.08-.09-.08-.09-.08-.09-.08-.09-.08-.09-.08-.09-.08-.09-.08-.09-.08-.09-.08-.09-.08-.09-.08-.09-.08-.09-.08-.09-.08-.09-.08-.09-.08-.09-.08-.09-.08-.09-.08-.09-.08-.09-.08-.09.59-.48.07.09.08.09.08.09.07.09.08.09.08.09.08.09.08.09.08.09.07.09.08.09.08.09.08.09.08.09.08.09.08.09.08.09.08.09.08.09.08.08.08.09.08.08.08.09.08.09.08.08.08.08.08.09.08.08.08.08.08.09.08.08.08.08zm23.76 11.77h.76l-.41.38-.9-.09-.89-.11-.89-.13-.88-.15-.87-.17-.87-.19-.86-.2-.85-.22-.84-.24-.84-.26-.83-.28-.82-.3-.81-.31-.8-.33-.79-.35-.79-.36-.78-.38-.77-.4-.76-.41-.75-.43-.74-.45-.73-.46-.71-.48-.7-.49-.69-.5-.68-.52-.67-.53-.66-.55-.65-.56-.63-.58-.62-.59-.61-.6.54-.54.6.59.61.58.62.57.63.55.65.54.66.52.67.51.68.5.69.48.7.47.71.45.72.44.73.42.74.4.75.39.76.37.77.36.78.34.79.32.8.31.8.29.81.27.82.26.83.24.83.22.84.2.85.18.85.16.86.15.87.13.87.11.88.09-.41.38zm.76 0v.42l-.41-.04.41-.38zm0-36.28v15.08h-.76V143.1l.38-.38.38.38zm-.38-.38h.38v.38l-.38-.38zm-35.83 0h35.83v.76h-35.83l-.38-.35.38-.41zm-.38.41-.04-.41h.42l-.38.41zm4.73 14.66v.76l-.34-.2-.22-.43-.22-.44-.21-.44-.21-.44-.2-.44-.2-.45-.19-.45-.19-.45-.18-.46-.18-.46-.17-.46-.16-.46-.16-.47-.15-.47-.15-.47-.14-.48-.14-.48-.13-.48-.13-.48-.12-.49-.11-.49-.11-.49-.1-.49-.09-.49-.09-.5-.08-.5-.08-.5-.07-.5-.06-.51-.06-.51-.06-.51-.05-.51.76-.07.05.5.05.5.06.5.06.49.07.49.08.49.08.49.09.49.09.49.1.48.1.48.11.48.12.48.12.48.13.47.13.47.14.46.15.47.15.46.16.46.16.46.16.45.17.45.18.45.18.45.19.44.19.44.2.44.2.44.21.43.21.43.22.43-.34-.2zm0 .76h-.23l-.11-.2.34.2zm31.48 0H128.1v-.76h31.48l.38.38-.38.38zm.38-.38v.38h-.38l.38-.38zm0-37.05v15.07h-.76v-15.07l.38-.38.38.38zm-.38-.38h.38v.38l-.38-.38zm-31.48 0h31.48v.76H128.1l-.34-.56.34-.21zm-.34.21.11-.21h.23l-.34.21zm-4.01 14.87v.76l-.38-.41.05-.51.06-.51.06-.51.06-.51.07-.5.08-.5.08-.5.09-.5.09-.49.1-.49.11-.49.11-.49.12-.49.13-.48.13-.48.14-.48.14-.48.15-.47.15-.47.16-.47.16-.46.17-.46.18-.46.18-.46.19-.45.19-.45.2-.45.2-.45.21-.44.21-.44.22-.44.22-.43.68.35-.22.43-.21.43-.21.43-.2.44-.2.44-.19.44-.19.44-.18.45-.18.45-.17.45-.16.46-.16.46-.16.46-.15.46-.15.47-.14.47-.13.47-.13.47-.12.47-.12.48-.11.48-.1.48-.1.48-.09.49-.09.49-.08.49-.08.49-.07.49-.06.49-.06.5-.05.5-.05.5-.38-.41zm0 .76h-.42l.04-.41.38.41zm35.83 0h-35.83v-.76h35.83l.38.38-.38.38zm.38-.38v.38h-.38l.38-.38zm0-36.28v14.3h-.76v-14.3l.35-.38.41.38zm-.41-.38.41-.04v.42l-.41-.38zm-24.11 12.15-.55-.54.61-.6.62-.59.63-.58.65-.56.66-.55.67-.53.68-.52.69-.5.7-.49.71-.48.73-.46.73-.44.75-.43.76-.41.77-.4.78-.38.79-.36.79-.35.8-.33.81-.31.82-.3.83-.28.84-.26.84-.24.85-.22.86-.21.87-.19.87-.17.88-.15.89-.13.89-.11.9-.09.07.76-.88.09-.87.11-.87.13-.86.15-.85.16-.85.18-.84.2-.83.22-.83.24-.82.25-.81.27-.8.29-.8.31-.79.33-.78.34-.77.36-.76.37-.75.39-.74.41-.73.42-.72.44-.71.45-.7.47-.69.48-.68.5-.67.51-.66.52-.65.54-.63.55-.62.57-.61.58-.6.59zm-.55-.54-.8.8.79-.8zm-2.25 2.69v.76l-.3-.62.08-.09.08-.09.08-.09.08-.09.08-.09.08-.09.08-.09.08-.09.08-.09.08-.09.08-.09.08-.09.08-.09.08-.09.08-.09.08-.09.08-.09.08-.09.08-.09.08-.09.08-.09.08-.09.08-.09.08-.09.08-.09.08-.09.08-.09.09-.09.08-.08.08-.08.08-.09.08-.08.55.54-.08.08-.08.08-.08.09-.08.08-.08.08-.08.09-.08.09-.08.09-.08.09-.08.08-.08.09-.08.09-.08.09-.08.09-.08.09-.08.09-.08.09-.08.09-.08.09-.08.09-.08.09-.08.09-.07.09-.08.09-.08.09-.07.09-.08.09-.08.09-.08.09-.08.09-.07.09-.08.09-.3-.62zm0 .76h-.8l.51-.62.3.62zm26.94 0h-26.94v-.76h26.94l.38.38-.38.38zm.38-.38v.38h-.38l.38-.38zm6.14 0v-14.3h.76v14.3l-.38.38-.38-.38zm.38.38h-.38v-.38l.38.38zm26.93 0h-26.93v-.76h26.93l.3.14-.3.62zm.3-.62.51.62h-.8l.3-.62zm-3.08-2.29.54-.54.08.08.08.08.08.09.08.09.08.08.08.09.08.09.08.09.08.09.08.09.08.09.08.09.08.09.08.09.08.09.08.09.08.09.08.09.08.09.08.09.08.09.08.09.08.09.08.09.08.09.08.09.08.09.08.09.08.09.08.09.08.09.08.09-.59.48-.07-.09-.08-.09-.08-.09-.08-.09-.08-.09-.08-.09-.08-.09-.07-.09-.08-.09-.08-.09-.08-.09-.08-.09-.08-.09-.08-.09-.08-.09-.08-.09-.08-.09-.08-.09-.08-.09-.08-.08-.08-.09-.08-.09-.08-.08-.08-.09-.08-.09-.08-.09-.08-.08-.08-.08-.08-.09-.08-.08-.08-.08-.08-.08zm.54-.54.69.7-.69-.7zm-24.31-11.23h-.76l.41-.38.9.09.89.11.89.13.88.15.87.17.87.19.86.21.85.22.84.24.84.26.83.28.82.29.81.31.8.33.79.35.79.36.78.38.77.4.76.41.75.43.74.44.72.46.72.48.7.49.7.5.68.52.67.53.66.55.65.56.64.57.62.59.61.6-.54.54-.6-.59-.61-.58-.62-.56-.63-.55-.65-.54-.66-.52-.67-.51-.68-.5-.69-.48-.7-.47-.71-.45-.72-.44-.73-.42-.74-.4-.75-.39-.76-.37-.77-.36-.78-.34-.79-.33-.79-.31-.8-.29-.81-.27-.82-.25-.83-.24-.83-.22-.84-.2-.85-.18-.85-.16-.86-.15-.87-.13-.87-.11-.88-.09.41-.38zm-.76 0v-.42l.41.04-.41.38zm0 36.28v-15.07h.76v15.07l-.38.38-.38-.38zm.38.38h-.38v-.38l.38.38zm35.83 0h-35.83v-.76h35.83l.38.35-.38.41zm.38-.41.04.41h-.42l.38-.41zm-4.73-14.66v-.76l.34.21.22.43.22.44.21.44.21.44.2.45.2.45.19.45.19.45.18.46.18.46.17.46.16.46.16.47.15.47.15.48.14.48.14.48.13.48.13.48.12.49.11.49.11.49.1.49.1.49.09.5.08.5.08.5.07.5.06.51.06.51.05.51.05.51-.76.06-.05-.5-.05-.5-.06-.5-.06-.49-.07-.49-.07-.49-.08-.49-.09-.49-.1-.49-.1-.48-.1-.48-.11-.48-.11-.48-.12-.47-.13-.47-.13-.47-.14-.47-.14-.46-.15-.46-.15-.46-.16-.46-.17-.46-.17-.45-.18-.45-.18-.45-.19-.44-.19-.44-.2-.44-.2-.44-.21-.43-.21-.43-.22-.43.34.21zm0-.76h.23l.11.21-.34-.21zm-31.48 0h31.48v.76h-31.48l-.38-.38.38-.38zm-.38.38v-.38h.38l-.38.38zm0 37.05V143.1h.76v15.08l-.38.38-.38-.38zm.38.38h-.38v-.38l.38.38zm31.48 0h-31.48v-.76h31.48l.34.56-.34.2zm.34-.2-.11.2h-.23l.34-.2zm4.01-14.87v-.76l.38.41-.05.51-.05.51-.06.51-.06.51-.07.5-.08.5-.08.5-.09.5-.1.49-.1.49-.11.49-.11.49-.12.49-.13.49-.13.48-.14.48-.14.48-.15.48-.15.47-.16.47-.16.46-.17.46-.18.46-.18.46-.19.45-.19.45-.2.45-.2.44-.21.44-.21.44-.22.44-.22.43-.68-.35.22-.43.21-.43.21-.43.2-.44.2-.44.19-.44.19-.44.18-.45.18-.45.17-.45.17-.45.16-.46.15-.46.15-.46.14-.46.14-.47.13-.47.13-.47.12-.47.11-.48.11-.48.1-.48.1-.48.1-.49.09-.49.08-.49.07-.49.07-.49.06-.49.06-.5.05-.5.05-.5.38.41zm0-.76h.42l-.04.41-.38-.41zm-35.83 0h35.83v.76h-35.83l-.38-.38.38-.38zm-.38.38v-.38h.38l-.38.38zm0 36.28v-14.3h.76v14.3l-.35.38-.41-.38zm.41.38-.41.04v-.42l.41.38zm24.11-12.15.54.54-.61.6-.62.59-.64.57-.65.56-.66.55-.67.53-.68.52-.7.5-.7.49-.72.48-.72.46-.74.44-.75.43-.76.41-.77.4-.78.38-.79.36-.79.35-.8.33-.81.31-.82.3-.83.28-.84.26-.84.24-.85.22-.86.2-.87.19-.87.17-.88.15-.89.13-.89.11-.9.09-.07-.76.88-.09.87-.11.87-.13.86-.15.85-.16.85-.18.84-.2.83-.22.83-.24.82-.26.81-.27.8-.29.79-.31.79-.33.78-.34.77-.36.76-.37.75-.39.74-.41.73-.42.72-.44.71-.45.7-.47.69-.48.68-.5.67-.51.66-.52.65-.54.63-.55.62-.56.61-.58.6-.59zm2.79-2.15v-.76l.3.62-.08.09-.08.09-.08.09-.08.09-.08.09-.08.09-.08.09-.08.09-.08.09-.08.09-.08.09-.08.09-.08.09-.08.09-.08.09-.08.09-.08.09-.08.09-.08.09-.08.09-.08.09-.08.09-.08.09-.08.09-.09.09-.08.08-.08.09-.08.08-.08.09-.08.09-.08.08-.08.08-.54-.54.08-.08.08-.08.08-.08.08-.09.08-.08.08-.09.08-.08.08-.08.08-.09.08-.08.08-.09.08-.09.08-.09.08-.09.08-.09.08-.09.08-.09.08-.09.08-.09.08-.09.08-.09.08-.09.08-.09.08-.09.08-.09.08-.09.07-.09.08-.09.08-.09.08-.09.08-.09.07-.09.3.62zm0-.76h.8l-.51.62-.3-.62zm-26.93 0h26.93v.76h-26.93l-.38-.38.38-.38zm-.38.38v-.38h.38l-.38.38zm29.97-58.7-.54.54-.15-.15-.15-.15-.15-.14-.15-.15-.15-.14-.15-.15-.15-.14-.15-.14-.15-.14-.15-.14-.15-.14-.15-.14-.15-.14-.15-.14-.16-.14-.15-.14-.16-.14-.16-.14-.16-.13-.16-.14-.16-.14-.16-.13-.16-.13-.16-.13-.16-.13-.16-.13-.16-.13-.16-.13-.16-.13-.16-.13-.16-.13-.16-.13.46-.61.17.13.16.13.17.13.16.13.16.13.17.13.17.14.16.13.16.13.16.14.16.14.16.14.16.14.16.14.16.14.16.14.16.14.16.14.16.14.16.14.15.14.15.14.16.14.15.15.15.14.15.15.15.15.15.14.15.15.15.15.15.15.15.15zm5.81 7.46v.76l-.32-.18-.17-.25-.16-.25-.17-.25-.17-.25-.17-.25-.17-.25-.18-.25-.18-.25-.18-.24-.18-.24-.18-.24-.18-.24-.18-.24-.19-.24-.19-.24-.19-.24-.19-.24-.19-.23-.19-.23-.2-.23-.19-.23-.2-.23-.2-.23-.2-.23-.2-.23-.2-.22-.2-.22-.2-.22-.21-.22-.21-.22-.21-.22-.21-.21.54-.54.21.22.21.22.21.22.21.22.21.22.21.23.2.23.21.23.2.23.2.23.2.23.2.23.2.23.2.24.2.24.19.24.19.24.19.24.19.24.19.24.19.25.18.25.18.25.18.25.18.25.18.25.18.25.17.25.18.25.17.26.17.26.17.26-.32-.18zm0 .76h-.21l-.11-.18.32.18zm23.15 0h-23.15v-.76h23.15l.2.05-.2.71zm.2-.71 1.2.71h-1.39l.2-.71zm-4.24-1.46.35-.68.13.06.13.06.13.06.13.06.12.06.13.06.12.07.13.06.12.07.12.06.13.07.12.06.12.07.12.07.12.07.12.07.12.07.12.07.12.07.12.07.12.07.12.07.12.06.12.07.12.07.12.07.12.07.11.07.12.07.12.07.12.07.12.07-.39.66-.11-.07-.12-.07-.11-.07-.12-.07-.12-.07-.11-.07-.12-.07-.12-.07-.12-.06-.12-.07-.12-.07-.12-.07-.12-.07-.12-.06-.12-.07-.12-.07-.12-.07-.12-.07-.12-.06-.12-.07-.12-.06-.12-.07-.12-.06-.12-.07-.12-.06-.12-.06-.13-.06-.12-.06-.12-.06-.13-.06-.13-.06-.12-.06zm0 0-.47-.24.47.24zM191 101.94l-.46.61.3-.68 1.08.2 1.08.21 1.07.22 1.06.23 1.05.23 1.05.24 1.04.25 1.03.25 1.02.26 1.02.27 1 .27 1 .28.99.29.98.3.97.3.96.31.95.32.94.32.94.33.93.34.92.34.9.35.9.35.89.36.88.36.87.37.86.38.85.39.83.39.83.39.82.4.8.41-.35.68-.8-.4-.81-.4-.82-.39-.83-.39-.84-.38-.85-.38-.86-.37-.87-.36-.88-.36-.89-.35-.9-.34-.91-.34-.92-.33-.93-.33-.94-.32-.95-.31-.95-.31-.97-.3-.97-.29-.98-.29-.99-.28-1-.27-1.01-.26-1.02-.26-1.02-.25-1.03-.24-1.04-.24-1.05-.23-1.05-.22-1.06-.22-1.07-.21-1.08-.2.3-.68zm-.46.61-1.28-.97 1.58.29-.3.68zm18.69 33.27v.76l-.38-.35-.04-.49-.04-.49-.05-.49-.05-.49-.06-.49-.06-.49-.07-.48-.07-.48-.08-.48-.08-.48-.09-.48-.09-.48-.1-.48-.1-.47-.11-.47-.11-.47-.12-.47-.12-.46-.13-.46-.13-.46-.14-.46-.14-.46-.15-.45-.15-.45-.15-.45-.16-.45-.16-.45-.17-.44-.17-.44-.18-.44-.18-.44-.19-.44.7-.3.19.44.19.45.18.45.17.45.17.45.17.46.16.46.16.46.15.46.15.46.14.47.14.47.14.47.13.47.13.47.12.47.12.48.11.48.11.48.1.48.09.48.09.49.08.49.08.49.08.49.07.49.06.5.06.5.05.5.05.5.04.5.04.5-.38-.35zm0 .76h-.36l-.03-.35.38.35zm34.48 0h-34.48v-.76h34.48l.38.31-.38.45zm.38-.45.08.45h-.46l.38-.45zm-9.58-14.62v-.76l.26.1.47.44.46.44.45.44.44.45.43.45.41.45.4.45.39.46.38.46.37.46.36.46.35.47.34.47.33.47.31.48.3.48.29.48.28.48.26.49.25.49.24.49.23.49.22.49.2.5.19.5.18.5.17.5.15.5.14.51.13.51.11.51.1.51-.75.14-.1-.49-.11-.49-.12-.49-.14-.49-.15-.49-.16-.48-.18-.48-.19-.48-.2-.48-.21-.48-.22-.48-.23-.47-.25-.48-.26-.47-.27-.47-.28-.47-.29-.46-.3-.46-.32-.46-.33-.46-.34-.46-.35-.46-.36-.45-.37-.45-.38-.45-.4-.45-.41-.44-.42-.44-.43-.44-.44-.43-.45-.43-.46-.43.26.1zm0-.76h.15l.11.1-.26-.1zm-28.94 0h28.94v.76h-28.94l-.35-.23.35-.53zm-.35.53-.23-.53h.58l-.35.53zm.35 36.52v.76l-.35-.53.19-.44.18-.44.18-.44.17-.44.17-.44.16-.45.16-.45.15-.45.15-.45.15-.46.14-.46.14-.46.13-.46.13-.46.12-.46.12-.47.11-.47.11-.47.1-.47.1-.48.09-.48.09-.48.08-.48.08-.48.07-.48.07-.48.06-.49.06-.49.05-.49.05-.49.04-.49.04-.49.76.05-.04.5-.04.5-.05.5-.05.5-.06.5-.06.5-.07.49-.08.49-.08.49-.08.49-.09.49-.09.48-.1.48-.11.48-.11.48-.12.48-.12.47-.13.47-.13.47-.14.47-.14.47-.14.46-.15.46-.15.46-.16.46-.16.46-.17.45-.17.45-.17.45-.18.45-.19.45-.19.44-.35-.53zm0 .76h-.58l.23-.53.35.53zm28.94 0h-28.94v-.76h28.94l.26.66-.26.1zm.26-.1-.11.1h-.15l.26-.1zm8.94-14.98v-.76l.38.45-.1.51-.11.51-.13.51-.14.51-.15.5-.16.5-.18.5-.19.5-.2.5-.22.49-.23.49-.24.49-.25.49-.26.49-.28.48-.29.48-.3.48-.31.48-.32.47-.34.47-.35.47-.36.46-.37.46-.38.46-.39.46-.4.45-.41.45-.43.45-.44.44-.45.44-.46.44-.47.44-.52-.56.46-.43.45-.43.44-.44.43-.44.42-.44.41-.44.39-.44.39-.45.37-.45.36-.45.35-.45.34-.46.33-.46.31-.46.3-.46.29-.46.28-.47.27-.47.26-.47.25-.47.23-.48.22-.48.21-.48.2-.48.18-.48.17-.48.16-.49.15-.49.13-.49.12-.49.11-.49.1-.49.38.45zm0-.76h.46l-.08.45-.38-.45zm-34.48 0h34.48v.76h-34.48l-.38-.41.38-.35zm-.38.35.03-.35h.36l-.38.35zm-12.77 29.85-.54-.54.21-.21.21-.22.21-.22.21-.22.21-.22.2-.22.2-.22.2-.23.2-.23.2-.23.2-.23.2-.23.19-.23.19-.23.19-.23.19-.23.19-.24.19-.24.19-.24.18-.24.19-.24.18-.24.18-.24.18-.24.18-.25.18-.25.17-.25.17-.25.17-.25.17-.25.16-.25.17-.26.64.42-.17.26-.17.26-.17.25-.17.25-.17.25-.18.25-.18.25-.18.25-.18.25-.18.25-.19.25-.19.24-.19.24-.19.24-.19.24-.19.24-.19.24-.19.24-.2.24-.2.24-.2.23-.2.23-.2.23-.2.23-.21.23-.2.23-.21.23-.21.22-.21.22-.21.22-.21.22-.21.22zm-5.37 3.75.14.75-.3-.68.17-.13.16-.12.16-.13.16-.13.16-.13.16-.13.16-.13.16-.13.16-.13.16-.13.16-.13.16-.13.16-.14.16-.13.16-.14.16-.14.15-.14.16-.14.15-.14.15-.14.15-.14.15-.14.15-.14.15-.14.15-.14.15-.14.15-.14.15-.15.15-.14.15-.15.15-.15.15-.15.54.54-.15.15-.15.15-.15.15-.15.15-.15.15-.15.15-.15.14-.15.14-.15.15-.16.14-.15.14-.16.14-.15.14-.16.14-.16.14-.16.14-.16.14-.16.14-.16.14-.16.14-.16.13-.16.14-.16.13-.16.13-.16.13-.16.13-.16.13-.17.13-.16.13-.17.13-.17.13-.17.13-.3-.68zm.14.75-1.58.29 1.28-.97.3.68zm30.16-10.57.35.68-.8.41-.82.4-.83.39-.83.39-.85.38-.86.38-.87.37-.88.37-.89.36-.9.35-.9.35-.92.34-.93.34-.94.33-.94.32-.95.32-.96.31-.97.3-.98.3-.99.29-1 .28-1 .27-1.02.27-1.02.26-1.03.25-1.04.25-1.05.24-1.05.23-1.06.23-1.07.21-1.08.21-1.08.2-.14-.75 1.08-.2 1.07-.21 1.06-.21 1.05-.22 1.05-.23 1.04-.24 1.03-.24 1.02-.25 1.02-.26 1.01-.26 1-.27.99-.28.98-.29.97-.29.97-.3.95-.31.95-.31.94-.32.93-.33.92-.33.91-.34.9-.34.89-.35.88-.36.87-.36.86-.37.85-.38.84-.38.83-.39.82-.39.81-.4.8-.4zm0 0-.53.27.53-.27zm4.04-1.41v-.76l.19.71-.12.07-.12.07-.12.07-.12.07-.12.07-.12.07-.12.07-.12.07-.12.07-.12.07-.12.07-.12.07-.12.07-.12.07-.12.07-.12.07-.12.07-.12.07-.13.07-.12.06-.12.06-.13.07-.13.06-.12.06-.12.07-.13.07-.13.06-.12.06-.13.06-.13.06-.13.06-.13.06-.35-.68.12-.06.13-.06.13-.06.12-.06.12-.06.13-.06.12-.06.12-.07.13-.06.12-.06.12-.06.12-.07.12-.06.12-.06.12-.07.12-.07.12-.07.12-.07.12-.06.12-.07.12-.07.11-.06.12-.07.12-.07.12-.07.12-.07.12-.07.11-.07.12-.07.12-.07.11-.07.12-.07.19.71zm0-.76h1.4l-1.21.71-.19-.71zm-23.15 0h23.15v.76H201.9l-.32-.59.32-.17zm-.32.17.11-.17h.21l-.32.17zm-71.57 8.05.54-.54.15.15.15.15.15.15.15.14.15.15.15.14.15.14.15.14.15.14.15.14.15.14.15.14.15.14.15.14.16.14.15.14.16.14.16.14.16.13.16.13.16.13.16.14.16.13.16.13.16.13.16.13.16.13.16.13.16.13.16.13.16.13.16.13-.46.61-.17-.13-.17-.13-.17-.13-.16-.13-.17-.13-.16-.13-.16-.13-.16-.13-.16-.13-.16-.13-.16-.14-.16-.13-.16-.14-.16-.14-.16-.14-.16-.14-.16-.14-.16-.14-.16-.14-.15-.14-.16-.14-.15-.14-.15-.14-.15-.15-.15-.14-.15-.14-.15-.15-.15-.15-.15-.15-.15-.15-.15-.15-.15-.15zm-5.82-7.46v-.76l.32.17.16.25.17.25.17.25.17.25.17.25.17.25.17.25.18.25.18.24.18.24.18.24.19.24.18.24.19.24.19.24.19.24.19.23.19.23.19.23.19.23.2.23.2.23.2.23.2.23.2.22.2.22.2.22.21.22.21.22.21.22.21.22.21.21-.54.54-.21-.22-.21-.22-.21-.23-.21-.22-.21-.22-.21-.23-.21-.23-.2-.23-.2-.23-.2-.23-.2-.23-.2-.23-.2-.24-.2-.24-.19-.24-.19-.24-.19-.24-.19-.24-.19-.24-.19-.24-.19-.24-.18-.25-.18-.25-.18-.25-.18-.25-.18-.25-.18-.25-.18-.25-.17-.26-.17-.25-.17-.26-.17-.26.32.17zm0-.76h.21l.11.17-.32-.17zm-23.15 0h23.15v.76h-23.15l-.19-.05.19-.71zm-.19.71-1.21-.71h1.4l-.19.71zm4.24 1.46-.35.68-.13-.06-.13-.06-.13-.06-.13-.06-.13-.06-.12-.06-.13-.07-.12-.07-.12-.06-.13-.06-.13-.07-.12-.06-.12-.07-.12-.07-.12-.07-.12-.07-.12-.07-.12-.07-.12-.07-.12-.07-.12-.07-.12-.07-.12-.07-.12-.07-.12-.07-.12-.07-.12-.07-.12-.07-.12-.07-.12-.07-.12-.07-.12-.07.39-.66.12.07.11.07.12.07.12.07.11.07.12.07.12.07.12.07.12.07.12.07.12.07.12.07.12.07.12.07.12.06.12.07.12.07.12.07.12.07.12.06.12.07.12.06.12.06.13.06.12.07.12.06.12.06.12.06.13.06.13.06.13.06.12.06zm0 0 .38.19-.38-.19zm30 10.49.46-.61-.3.68-1.08-.2-1.08-.21-1.07-.22-1.06-.23-1.05-.23-1.05-.24-1.04-.25-1.03-.25-1.03-.26-1.02-.27-1-.27-1-.28-.99-.29-.98-.3-.97-.3-.97-.31-.95-.31-.94-.32-.93-.33-.93-.34-.92-.34-.9-.35-.9-.35-.89-.36-.88-.36-.87-.37-.86-.38-.85-.38-.83-.39-.83-.39-.82-.4-.8-.41.35-.68.8.4.81.4.82.39.83.39.84.38.85.38.86.37.87.36.88.36.89.35.9.34.91.34.92.33.93.33.94.32.95.31.96.31.97.3.97.29.98.29.99.28 1 .27 1.01.26 1.02.26 1.03.25 1.03.24 1.04.24 1.05.23 1.05.22 1.07.22 1.07.21 1.08.2-.3.68zm.46-.61 1.29.97-1.59-.29.3-.68zm-18.69-33.26v-.76l.38.35.04.49.04.49.05.49.05.49.06.49.06.49.07.48.07.48.08.48.08.48.09.48.09.48.1.48.1.47.11.47.11.47.12.47.12.47.13.46.13.46.14.46.14.46.15.46.15.45.15.45.16.45.16.45.17.44.17.44.18.44.18.44.19.44-.7.3-.19-.44-.18-.44-.18-.45-.17-.45-.17-.45-.17-.45-.16-.46-.16-.46-.15-.46-.15-.46-.14-.46-.14-.47-.13-.47-.13-.47-.13-.47-.12-.48-.11-.48-.11-.48-.1-.48-.1-.48-.09-.48-.09-.49-.08-.49-.08-.49-.08-.49-.07-.49-.06-.5-.06-.5-.06-.5-.05-.5-.04-.5-.04-.5.38.35zm0-.76h.36l.03.35-.38-.35zm-34.47 0h34.47v.76H82.39l-.38-.31.38-.45zm-.38.45-.08-.45h.46l-.38.45zm9.57 14.63v.76l-.26-.1-.47-.44-.46-.44-.45-.44-.44-.44-.43-.45-.41-.45-.4-.45-.39-.46-.38-.46-.37-.46-.36-.46-.35-.47-.34-.47-.32-.47-.31-.48-.3-.48-.29-.48-.28-.48-.26-.49-.25-.49-.24-.49-.23-.49-.22-.49-.2-.5-.19-.5-.18-.5-.16-.5-.15-.5-.14-.51-.13-.51-.11-.51-.1-.51.75-.14.1.49.11.49.12.49.13.49.15.49.16.49.17.48.19.48.2.48.21.48.22.48.23.48.25.47.26.47.27.47.28.47.29.46.3.46.31.46.33.46.34.46.35.45.36.45.37.45.38.45.4.44.4.44.42.44.43.44.44.44.45.43.46.43-.26-.1zm0 .76h-.15l-.11-.1.26.1zm28.94 0H91.58v-.76h28.94l.35.23-.35.53zm.35-.53.23.53h-.58l.35-.53zm-.35-36.52v-.76l.35.53-.19.44-.18.44-.18.44-.17.44-.17.44-.16.45-.16.45-.15.45-.15.45-.15.46-.14.46-.14.46-.13.46-.13.46-.12.47-.12.47-.11.47-.11.47-.1.47-.1.48-.09.48-.09.48-.08.48-.08.48-.07.48-.07.48-.06.49-.06.49-.05.49-.05.49-.04.49-.04.49-.76-.05.04-.5.04-.5.05-.5.06-.5.06-.5.06-.5.07-.49.08-.49.08-.49.08-.49.09-.49.09-.48.1-.48.1-.48.11-.48.11-.48.12-.48.13-.47.13-.47.13-.47.14-.47.14-.47.15-.46.15-.46.16-.46.16-.46.17-.46.17-.45.17-.45.18-.45.18-.44.19-.44.35.53zm0-.76h.58l-.23.53-.35-.53zm-28.94 0h28.94v.76H91.58l-.26-.66.26-.1zm-.26.1.11-.1h.15l-.26.1zm-8.93 14.97v.76l-.38-.45.1-.51.11-.51.13-.51.14-.51.15-.5.16-.5.18-.5.19-.5.2-.5.22-.49.23-.49.24-.49.25-.49.26-.49.28-.48.29-.48.3-.48.31-.48.33-.47.34-.47.35-.47.36-.46.37-.46.38-.46.39-.46.4-.45.41-.45.43-.45.44-.45.45-.44.46-.44.47-.44.52.56-.46.43-.45.43-.44.43-.43.44-.42.44-.4.44-.4.45-.38.45-.37.45-.36.45-.35.46-.34.46-.33.46-.32.46-.3.46-.29.46-.28.47-.27.47-.26.47-.25.48-.23.47-.22.48-.21.48-.2.48-.19.48-.17.48-.16.49-.15.49-.13.49-.12.49-.11.49-.1.49-.38-.45zm0 .76h-.46l.08-.45.38.45zm34.47 0H82.39v-.76h34.47l.38.41-.38.35zm.38-.35-.03.35h-.36l.38-.35zm12.78-29.84.54.54-.21.21-.21.22-.21.22-.21.22-.2.22-.21.22-.2.22-.2.23-.2.23-.2.22-.2.23-.2.23-.19.23-.19.23-.19.23-.19.24-.19.24-.19.24-.19.24-.18.24-.18.24-.18.24-.18.24-.18.24-.18.25-.17.25-.17.25-.17.25-.17.25-.17.25-.17.25-.16.25-.64-.42.17-.26.17-.25.17-.26.17-.26.17-.25.18-.25.18-.25.18-.25.18-.25.18-.25.18-.25.19-.25.19-.24.19-.24.19-.24.19-.24.19-.24.19-.24.2-.24.2-.23.2-.23.2-.23.2-.23.2-.23.2-.23.21-.23.21-.23.21-.22.21-.22.21-.22.21-.22.21-.22zm5.37-3.76-.14-.75.3.68-.17.13-.16.13-.16.13-.16.13-.16.13-.16.13-.16.13-.16.13-.16.13-.16.13-.16.13-.16.13-.16.14-.16.13-.16.14-.16.14-.15.14-.16.14-.15.14-.15.14-.15.14-.15.14-.15.14-.15.14-.15.14-.15.14-.15.15-.15.14-.15.15-.15.14-.15.15-.15.15-.54-.54.15-.15.15-.15.15-.15.15-.15.15-.14.15-.15.15-.15.15-.14.15-.15.15-.14.15-.14.16-.14.15-.14.16-.14.16-.14.16-.14.16-.14.16-.14.16-.14.16-.14.16-.14.16-.13.16-.14.16-.13.16-.13.17-.14.17-.13.16-.13.16-.13.17-.13.17-.13.17-.13.3.68zm-.14-.75 1.59-.29-1.29.97-.3-.68zm-30.16 10.57-.35-.68.8-.41.82-.4.83-.39.83-.39.85-.39.86-.38.87-.37.88-.36.89-.36.9-.35.9-.35.92-.34.93-.34.94-.33.94-.32.95-.32.97-.31.97-.3.98-.3.99-.29 1-.28 1-.27 1.02-.27 1.02-.26 1.03-.25 1.04-.25 1.05-.24 1.05-.23 1.06-.23 1.07-.22 1.08-.21 1.08-.2.14.75-1.08.2-1.07.21-1.07.22-1.05.22-1.05.23-1.04.24-1.03.24-1.02.25-1.02.26-1.01.26-1 .27-.99.28-.98.29-.97.29-.97.3-.96.31-.95.31-.94.32-.93.33-.92.33-.91.34-.9.34-.89.35-.88.36-.87.36-.86.37-.85.38-.84.38-.83.39-.82.39-.81.4-.8.4zm0 0 .35-.18-.35.18zm-4.05 1.41v.76l-.2-.71.12-.07.12-.07.12-.07.12-.07.11-.07.12-.07.12-.07.12-.07.12-.07.12-.07.12-.07.12-.07.12-.07.12-.07.12-.07.12-.07.12-.07.13-.07.12-.06.12-.07.13-.06.12-.07.12-.06.12-.07.13-.07.13-.06.12-.06.13-.06.13-.06.13-.06.13-.06.13-.06.35.68-.12.06-.13.06-.13.06-.13.06-.12.06-.12.06-.13.06-.12.06-.12.07-.12.06-.12.07-.12.06-.12.06-.12.07-.12.06-.12.07-.12.07-.12.06-.12.07-.12.07-.12.07-.12.07-.12.07-.12.06-.12.07-.12.07-.11.07-.12.07-.12.07-.11.07-.12.07-.11.07-.2-.71zm0 .76h-1.39l1.2-.71.2.71zm23.15 0h-23.15v-.76h23.15l.32.59-.32.17zm.32-.17-.11.17h-.21l.32-.17zm99.98-8.8-.35.68-.04-.02-.05-.02-.04-.02-.04-.02-.04-.02-.04-.02-.04-.02-.05-.03-.04-.02-.04-.01-.05-.03-.04-.02-.04-.02-.04-.02-.04-.02-.04-.02-.04-.02-.04-.02-.04-.02-.04-.02-.04-.02-.04-.02-.04-.02-.05-.02-.04-.02-.04-.02-.05-.03-.04-.02-.04-.02-.04-.02-.04-.02-.04-.02.34-.68.04.02.04.02.04.02.04.02.04.02.04.02.04.02.05.03.04.02.04.02.05.02.04.02.04.02.04.02.04.02.04.02.04.02.04.02.04.02.05.02.04.02.03.01.05.02.05.03.04.02.04.02.04.02.04.02.05.02.04.02.04.02.05.02zm0 0zm12.56 8.21v.76l-.24-.09-.34-.28-.34-.28-.35-.28-.35-.28-.35-.28-.36-.27-.36-.27-.37-.27-.37-.27-.37-.26-.38-.27-.38-.26-.39-.26-.39-.26-.39-.26-.39-.26-.4-.25-.4-.26-.4-.25-.41-.25-.41-.25-.41-.25-.42-.25-.42-.24-.43-.24-.43-.24-.43-.24-.44-.24-.44-.24-.44-.24-.44-.23-.45-.23.35-.68.45.23.45.24.44.24.44.24.44.24.44.24.43.25.43.24.43.25.42.25.42.25.42.25.41.25.41.26.41.26.4.26.4.26.4.26.39.26.39.26.39.27.38.27.38.27.38.27.37.27.37.27.37.28.36.28.35.28.36.28.35.28.35.28-.24-.09zm0 .76h-.14l-.11-.09.24.09zm17.29 0h-17.29v-.76h17.29l.14.03-.14.74zm.14-.74 1.85.74h-1.99l.14-.74zm-5.47-1.23.25-.72.17.06.17.06.16.06.17.06.16.06.17.06.17.06.17.06.17.06.16.06.16.06.16.06.17.06.16.06.16.06.16.06.16.06.16.06.16.06.16.06.16.06.16.06.16.06.16.06.16.06.16.06.16.06.16.06.16.06.16.06.16.06.16.06-.28.71-.16-.06-.16-.06-.15-.06-.16-.06-.16-.06-.16-.06-.16-.06-.16-.06-.16-.06-.16-.06-.16-.06-.16-.06-.16-.06-.16-.06-.16-.06-.16-.06-.16-.06-.16-.06-.16-.06-.16-.06-.16-.06-.16-.06-.16-.06-.17-.06-.16-.06-.17-.06-.17-.06-.16-.06-.17-.06-.17-.06-.16-.06-.17-.06zm-25.86-7.67-.34.68.24-.72.9.18.9.18.89.18.89.19.88.19.88.19.87.2.86.2.86.2.86.2.85.2.84.21.84.21.83.21.83.21.82.22.82.22.81.22.81.23.8.23.8.23.79.23.79.23.78.24.77.24.77.24.76.24.75.25.75.25.74.25.74.25.73.25-.25.72-.73-.25-.73-.25-.74-.25-.74-.25-.75-.24-.76-.24-.76-.24-.77-.24-.77-.24-.78-.23-.79-.23-.79-.23-.8-.23-.8-.23-.81-.22-.82-.22-.82-.21-.83-.21-.83-.21-.84-.21-.84-.21-.85-.2-.85-.2-.86-.2-.86-.2-.87-.2-.87-.19-.88-.19-.88-.19-.89-.18-.89-.18-.9-.18.24-.72zm-.34.68-2.57-1.27 2.82.56-.24.72zm27.88 30.16v.76l-.38-.33-.07-.49-.08-.49-.09-.49-.1-.49-.11-.49-.12-.48-.13-.48-.14-.48-.15-.48-.15-.48-.16-.47-.17-.48-.18-.47-.19-.47-.2-.47-.21-.47-.22-.46-.22-.47-.24-.46-.24-.46-.25-.46-.26-.45-.27-.45-.28-.45-.28-.45-.29-.45-.3-.44-.31-.44-.32-.44-.33-.44-.33-.44-.34-.43.6-.48.35.44.34.45.33.45.33.45.31.45.31.46.3.46.29.46.28.46.28.46.26.47.26.47.25.47.24.47.23.48.22.48.21.48.21.48.19.48.18.49.18.49.17.49.16.49.15.49.14.5.13.5.12.5.11.5.1.5.09.5.08.5.07.51-.38-.33zm0 .76h-.34l-.04-.33.38.33zm31.77 0h-31.77v-.76h31.77l.37.28-.37.48zm.37-.48.14.48h-.5l.37-.48zM268.5 121.5v-.76l.2.05.71.44.69.44.68.44.66.45.64.45.63.45.61.45.59.46.58.46.56.46.54.46.53.47.51.47.49.47.47.48.46.48.44.48.42.48.4.49.38.49.36.49.35.49.33.49.31.5.29.5.27.5.25.5.24.5.21.51.19.51.17.51.15.51-.74.2-.15-.49-.16-.49-.18-.48-.2-.48-.22-.48-.24-.48-.26-.48-.28-.48-.3-.48-.32-.48-.34-.48-.36-.47-.37-.48-.39-.47-.41-.47-.43-.47-.44-.46-.46-.46-.48-.46-.5-.46-.52-.46-.53-.46-.55-.45-.57-.45-.58-.45-.6-.45-.61-.45-.64-.44-.65-.44-.67-.44-.68-.44-.7-.43.2.05zm0-.76h.11l.09.05-.2-.05zm-24.58 0h24.58v.76h-24.58l-.3-.14.3-.62zm-.3.62-.5-.62h.79l-.3.62zm.3 36.43v.76l-.3-.62.34-.43.33-.43.33-.44.32-.44.31-.44.3-.45.29-.44.28-.45.28-.45.27-.45.26-.45.25-.46.24-.46.24-.46.22-.46.22-.46.21-.47.2-.47.19-.47.18-.47.17-.48.16-.48.15-.48.15-.48.14-.48.13-.48.12-.48.11-.49.1-.49.09-.49.08-.49.07-.49.76.1-.07.51-.08.5-.09.5-.1.5-.11.5-.12.5-.13.5-.14.5-.15.49-.16.49-.17.49-.18.49-.18.49-.19.48-.21.48-.21.48-.22.48-.23.47-.24.48-.25.47-.26.47-.26.47-.28.46-.28.46-.29.46-.3.46-.31.45-.31.45-.33.45-.33.45-.34.45-.35.44-.3-.62zm0 .76h-.79l.5-.62.3.62zm24.58 0h-24.58v-.76h24.58l.2.71-.2.05zm.2-.05-.09.05h-.11l.2-.05zm13.76-15.02v-.76l.37.48-.15.51-.17.51-.19.51-.21.51-.24.51-.25.5-.27.5-.29.5-.31.5-.33.49-.35.49-.36.49-.38.49-.4.48-.42.48-.44.48-.46.48-.48.48-.49.47-.51.47-.53.47-.54.46-.56.46-.58.46-.59.46-.61.45-.63.45-.64.45-.66.45-.68.44-.69.44-.71.44-.4-.65.7-.43.68-.44.67-.44.65-.44.64-.44.61-.45.6-.45.58-.45.57-.45.55-.45.53-.46.52-.46.5-.46.48-.46.46-.46.44-.47.43-.47.41-.47.39-.47.37-.47.36-.48.34-.48.32-.48.3-.48.28-.48.26-.48.24-.48.22-.48.2-.48.18-.48.16-.49.15-.49.37.48zm0-.76h.5l-.14.48-.37-.48zm-31.77 0h31.77v.76h-31.77l-.38-.43.38-.33zm-.38.33.04-.33h.34l-.38.33zm-25.82 30.62-.35-.68.45-.23.44-.23.44-.24.44-.24.44-.24.43-.24.43-.24.43-.24.42-.24.42-.25.41-.25.41-.25.41-.25.4-.25.4-.26.4-.25.39-.26.39-.26.39-.26.39-.26.38-.26.38-.26.37-.26.37-.27.37-.27.36-.27.36-.27.35-.28.35-.28.35-.28.34-.28.34-.28.49.59-.35.28-.35.28-.36.28-.35.28-.36.28-.37.28-.37.27-.37.27-.38.27-.38.27-.38.27-.39.26-.39.27-.39.26-.4.26-.4.26-.4.26-.41.26-.41.26-.41.25-.41.25-.42.25-.42.25-.43.25-.43.25-.43.24-.44.24-.44.24-.44.24-.44.24-.45.24-.45.23zm0 0zm-1.58-.05.15.75-.24-.72.04-.02.04-.02.05-.03.04-.02.04-.02.04-.02.04-.02.04-.02.05-.02.05-.02.04-.02.04-.02.04-.02.04-.02.04-.02.04-.02.04-.02.04-.02.04-.02.04-.02.04-.02.05-.02.04-.02.04-.02.04-.02.04-.02.04-.02.04-.02.04-.02.04-.02.05-.02.04-.02.35.68-.05.02-.04.02-.04.02-.05.02-.04.02-.04.02-.04.02-.04.02-.04.02-.04.02-.04.02-.04.02-.05.02-.04.02-.04.02-.04.02-.04.02-.04.02-.04.02-.04.02-.05.03-.05.02-.04.02-.04.02-.04.02-.04.02-.04.02-.05.03-.04.02-.04.02-.04.02-.04.02-.24-.72zm.15.75-2.87.57 2.63-1.29.24.72zm25.95-7.71.25.72-.73.25-.74.25-.74.25-.75.25-.75.25-.76.24-.77.24-.77.24-.78.24-.79.23-.79.23-.79.23-.8.23-.81.23-.81.22-.82.22-.82.22-.83.21-.83.21-.84.21-.84.21-.85.21-.86.2-.86.2-.86.2-.87.2-.88.19-.88.19-.88.19-.89.19-.9.18-.9.18-.15-.75.9-.18.89-.18.89-.19.88-.19.88-.19.87-.19.87-.2.86-.2.86-.2.85-.2.85-.21.84-.21.84-.21.83-.21.83-.21.82-.21.82-.22.81-.22.8-.23.8-.23.79-.23.79-.23.78-.23.77-.23.77-.24.76-.24.76-.24.75-.24.74-.25.74-.25.73-.25.73-.25zm5.33-1.19v-.76l.14.74-.16.06-.16.06-.16.06-.16.06-.16.06-.16.06-.16.06-.16.06-.16.06-.16.06-.16.06-.16.06-.16.06-.16.06-.16.06-.16.06-.16.06-.16.06-.16.06-.16.06-.16.06-.17.06-.17.06-.17.06-.16.06-.17.06-.17.06-.16.06-.17.06-.16.06-.17.06-.17.06-.25-.72.17-.06.16-.06.17-.06.17-.06.16-.06.17-.06.17-.06.16-.06.17-.06.16-.06.16-.06.16-.06.16-.06.16-.06.16-.06.16-.06.16-.06.16-.06.16-.06.16-.06.16-.06.16-.06.16-.06.16-.06.16-.06.16-.06.16-.06.16-.06.16-.06.16-.06.16-.06.16-.06.14.74zm0-.76h1.99l-1.85.74-.14-.74zm-17.29 0h17.29v.76h-17.29l-.24-.68.24-.09zm-.24.09.11-.09h.14l-.24.09zm-135.19 8.88.35-.68.04.02.05.02.04.02.04.02.04.02.04.02.05.02.04.02.04.02.04.02.04.02.04.02.05.02.04.02.04.02.04.02.04.02.04.02.04.02.04.02.04.02.04.02.05.03.04.02.04.02.04.02.05.02.04.02.04.02.04.02.04.02.04.02-.33.69-.04-.02-.04-.02-.04-.02-.04-.02-.05-.03-.04-.02-.04-.02-.05-.02-.04-.02-.04-.02-.04-.02-.05-.03-.04-.02-.04-.02-.04-.02-.04-.02-.04-.02-.05-.02-.04-.02-.04-.02-.04-.02-.04-.02-.04-.02-.05-.02-.04-.02-.04-.02-.04-.02-.04-.02-.05-.02-.04-.02-.04-.02-.05-.02zm0 0zm-12.56-8.21v-.76l.24.09.34.28.34.28.35.28.35.28.36.28.36.27.36.27.36.27.37.27.37.26.38.26.38.26.38.26.39.26.39.26.39.26.4.25.4.26.41.25.41.25.41.25.41.25.42.25.42.24.42.24.43.24.43.24.44.24.44.24.44.24.44.23.45.23-.35.68-.45-.23-.45-.24-.45-.24-.44-.24-.44-.24-.44-.24-.43-.24-.43-.25-.43-.25-.42-.25-.42-.25-.42-.25-.41-.25-.41-.26-.4-.26-.4-.26-.4-.26-.4-.26-.39-.26-.39-.27-.39-.26-.38-.27-.38-.27-.38-.27-.37-.27-.37-.27-.36-.28-.36-.28-.35-.28-.35-.28-.35-.28-.35-.28.24.09zm0-.76h.14l.11.09-.24-.09zm-17.29 0h17.29v.76H71.77l-.14-.03.14-.74zm-.14.74-1.85-.74h1.99l-.14.74zm5.46 1.22-.25.72-.17-.06-.17-.06-.17-.06-.17-.06-.17-.06-.17-.06-.17-.06-.16-.06-.16-.06-.17-.06-.16-.06-.16-.06-.16-.06-.16-.06-.16-.06-.16-.06-.16-.06-.16-.06-.16-.06-.16-.06-.16-.06-.16-.06-.16-.06-.16-.06-.16-.06-.16-.06-.16-.06-.16-.06-.16-.06-.16-.06-.16-.06-.16-.06.28-.71.16.06.16.06.16.06.16.06.16.06.16.06.16.06.16.06.16.06.16.06.16.06.16.06.16.06.16.06.16.06.16.06.16.06.16.06.16.06.16.06.16.06.16.06.16.06.16.06.16.06.17.06.17.06.17.06.17.06.17.06.16.06.17.06zm25.86 7.68.33-.69-.24.72-.9-.18-.9-.18-.89-.19-.88-.19-.88-.19-.88-.19-.87-.2-.87-.2-.86-.2-.85-.2-.85-.21-.84-.21-.84-.21-.84-.21-.83-.21-.82-.22-.82-.22-.81-.22-.81-.23-.8-.23-.8-.23-.79-.23-.78-.23-.78-.24-.77-.24-.77-.24-.76-.24-.75-.25-.75-.25-.74-.25-.74-.25-.73-.25.25-.72.73.25.73.25.74.25.74.25.75.24.76.24.76.24.77.24.78.23.78.23.79.23.79.23.8.23.8.23.81.22.81.22.82.21.83.21.83.21.84.21.84.21.85.21.85.2.86.2.87.2.87.2.87.19.88.19.88.19.89.19.89.18.9.18-.24.72zm.33-.69 2.69 1.3-2.93-.58.24-.72zM75.4 143.5v-.76l.38.33.07.49.08.49.09.49.1.49.11.49.12.48.13.48.14.48.14.48.15.48.16.48.17.48.18.47.19.47.2.47.21.47.21.47.22.46.24.46.24.46.25.46.26.45.27.45.28.45.28.45.29.44.3.45.31.44.32.44.33.44.33.43.34.43-.6.48-.35-.44-.34-.45-.33-.45-.33-.45-.31-.45-.31-.45-.3-.46-.29-.46-.28-.46-.28-.46-.26-.47-.26-.47-.25-.47-.24-.48-.23-.48-.22-.48-.21-.48-.2-.48-.19-.48-.19-.49-.18-.49-.17-.49-.16-.49-.15-.5-.14-.49-.13-.5-.12-.5-.11-.5-.1-.5-.09-.51-.08-.5-.07-.51.38.33zm0-.76h.34l.04.33-.38-.33zm-31.77 0H75.4v.76H43.63l-.37-.28.37-.48zm-.37.48-.14-.48h.5l-.37.48zm14.34 14.59v.76l-.2-.05-.71-.44-.69-.44-.68-.44-.66-.45-.64-.45-.63-.45-.61-.45-.59-.46-.58-.46-.56-.46-.54-.46-.53-.47-.51-.47-.49-.47-.48-.48-.46-.48-.44-.48-.42-.48-.4-.48-.38-.49-.37-.49-.35-.49-.33-.49-.31-.5-.29-.5-.27-.5-.25-.5-.23-.51-.21-.51-.2-.51-.17-.51-.15-.51.74-.2.15.49.16.49.18.48.2.48.22.48.24.48.26.48.28.48.3.48.32.48.34.48.35.48.38.47.39.47.41.47.43.47.45.47.46.46.48.46.5.46.52.46.53.46.55.45.57.45.58.45.6.45.61.45.64.44.65.44.67.44.68.44.7.43-.2-.05zm0 .76h-.11l-.09-.05.2.05zm24.58 0H57.6v-.76h24.58l.3.14-.3.62zm.3-.62.5.62h-.79l.3-.62zm-.3-36.43v-.76l.3.62-.34.43-.33.44-.33.44-.32.44-.31.44-.3.45-.29.45-.28.45-.28.45-.26.45-.26.46-.25.46-.24.46-.23.46-.23.47-.22.46-.21.47-.2.47-.19.47-.18.47-.17.48-.16.48-.15.48-.14.48-.14.48-.13.48-.12.48-.11.49-.1.49-.09.49-.08.49-.07.49-.76-.1.07-.51.08-.5.09-.5.1-.5.11-.5.12-.5.13-.5.14-.49.15-.49.16-.49.17-.49.18-.49.19-.49.19-.48.2-.48.21-.48.22-.48.23-.48.24-.47.25-.47.26-.47.26-.46.27-.46.28-.46.29-.46.3-.46.31-.45.31-.45.33-.45.33-.45.34-.45.35-.44.3.62zm0-.76h.79l-.5.62-.3-.62zm-24.58 0h24.58v.76H57.6l-.2-.71.2-.05zm-.2.05.09-.05h.11l-.2.05zm-13.77 15.02v.76l-.37-.48.15-.51.17-.51.2-.51.21-.51.23-.5.25-.5.27-.5.29-.5.31-.5.33-.49.35-.49.37-.49.38-.49.4-.49.42-.48.44-.48.46-.48.47-.48.49-.47.51-.47.53-.47.54-.46.56-.46.58-.46.59-.46.61-.45.63-.45.64-.45.66-.45.68-.44.69-.44.71-.44.4.65-.7.43-.68.44-.67.44-.65.44-.64.44-.61.45-.6.45-.58.45-.57.45-.55.45-.53.46-.52.46-.5.46-.48.46-.46.46-.45.46-.43.47-.41.47-.39.47-.38.48-.35.47-.34.48-.32.48-.3.48-.28.48-.26.48-.24.48-.22.48-.2.48-.18.48-.16.49-.15.49-.37-.48zm0 .76h-.5l.14-.48.37.48zm31.77 0H43.63v-.76H75.4l.38.43-.38.33zm.38-.33-.04.33h-.34l.38-.33zm25.83-30.61.35.68-.45.23-.44.23-.44.24-.44.24-.44.24-.43.24-.43.24-.43.24-.42.24-.42.25-.41.25-.41.25-.41.25-.4.25-.4.26-.4.25-.39.26-.39.26-.39.26-.39.26-.38.26-.38.27-.38.26-.37.27-.37.27-.36.27-.36.27-.36.28-.35.28-.35.28-.34.28-.34.28-.49-.59.35-.28.35-.28.36-.28.35-.28.36-.28.36-.28.37-.28.37-.27.37-.27.38-.27.38-.27.38-.27.39-.26.39-.26.4-.26.4-.26.4-.26.41-.26.41-.26.41-.25.42-.25.42-.25.42-.25.43-.25.43-.25.43-.24.44-.24.44-.24.44-.24.45-.24.45-.24.45-.23zm1.58.05-.15-.75.24.72-.04.02-.04.02-.04.02-.04.02-.04.02-.05.03-.04.02-.03.02-.04.02-.04.02-.04.02-.04.02-.04.02-.04.02-.04.02-.04.02-.04.02-.04.02-.04.02-.05.02-.04.02-.05.03-.04.01-.03.02-.05.02-.05.02-.04.02-.04.02-.04.02-.04.02-.05.02-.04.02-.35-.68.05-.02.04-.02.04-.02.05-.02.04-.02.04-.02.04-.02.03-.02.05-.03.05-.02.04-.02.04-.02.04-.02.04-.02.05-.02.04-.02.04-.02.04-.02.04-.02.04-.02.04-.02.04-.02.04-.02.04-.02.05-.03.04-.02.03-.02.04-.02.04-.02.05-.02.04-.02.04-.02.24.72zm-.15-.75 2.88-.57-2.64 1.29-.24-.72zm-25.95 7.71-.25-.72.73-.25.74-.25.74-.25.75-.25.75-.25.76-.24.77-.24.77-.24.78-.24.78-.23.79-.23.8-.23.8-.23.81-.23.81-.22.82-.22.82-.22.83-.21.84-.21.84-.21.84-.21.85-.2.85-.2.86-.2.87-.2.87-.2.88-.19.88-.19.89-.19.89-.18.9-.18.9-.18.15.75-.9.18-.89.18-.89.18-.88.19-.88.19-.87.19-.87.2-.87.2-.86.2-.85.2-.85.2-.84.21-.84.21-.83.21-.83.21-.82.21-.81.22-.81.22-.8.23-.8.23-.79.23-.79.23-.78.23-.78.24-.77.24-.76.24-.76.24-.75.24-.74.25-.74.25-.73.25-.73.25zm-5.33 1.2v.76l-.14-.74.16-.06.16-.06.16-.06.16-.06.16-.06.16-.06.16-.06.16-.06.16-.06.16-.06.16-.06.16-.06.16-.06.16-.06.16-.06.16-.06.16-.06.16-.06.17-.06.16-.06.17-.06.16-.06.16-.06.16-.06.17-.06.17-.06.17-.06.17-.06.17-.06.17-.06.17-.06.17-.06.25.72-.17.06-.16.06-.17.06-.17.06-.17.06-.17.06-.17.06-.16.06-.16.06-.16.06-.17.06-.16.06-.16.06-.16.06-.16.06-.16.06-.16.06-.16.06-.16.06-.16.06-.16.06-.16.06-.16.06-.16.06-.16.06-.16.06-.16.06-.16.06-.16.06-.16.06-.16.06-.16.06-.14-.74zm0 .76h-2l1.86-.74.14.74zm17.29 0H71.76v-.76h17.29l.24.68-.24.09zm.24-.09-.11.09h-.14l.24-.09z" style="fill:#fefefe;fill-rule:nonzero"/><path d="M173.53 207.26c-1.03.01-9.48.61-10.49.63-33.67.55-60.93-.61-102.82-13.66C27.96 184.18.01 162.75.01 139.67c0-28.94 29.74-45.89 61.63-57.05 20.86-7.3 54.11-13.06 101.41-12.78 33.24.2 56.5 6.24 72.82 10.5l-3.26 10.25s-15.17-3.38-23.18-4.6c-14.81-2.27-30.47-3.45-46.38-3.45-39.85 0-75.71 7.2-101.47 18.83-23.27 10.51-37.67 24.1-37.67 38.29 0 14.18 12.37 26.84 35.65 37.36 25.76 11.63 63.64 19.76 103.49 19.76 6.27 0 12.22-.16 17.84-.48.78-.04 1.57-.09 2.35-.14 0 0-3.88 4.56-9.7 11.09z" style="fill:#1f558b;fill-rule:nonzero"/><path class="fil3" d="M143.21 54.29c16.42-18.35 23.61-26.67 40.26-38.7 17.3-12.5 32.38-18.04 49.88-14.57 24.89 4.92 35.32 33.68 34.07 72.14-1.02 31.04-12.24 68.49-33.57 105.43-26.33 38.63-43.19 61.65-79.63 84.73-26.41 16.72-52.46 20.04-66.65 11.7-10.98-6.45-15.95-16.62-18.83-27.68-2.57-9.9-2.13-22.15-.65-33.92l10.53 2.93c-.37 9.25.36 17.42 2.14 24.31 2.41 9.31 6.71 16.03 12.72 19.5 12.29 7.09 31.26 1.42 52-13.48 22.95-16.49 47.12-43.95 67.04-78.45 19.92-34.51 31.62-69.17 34.42-97.29 2.53-25.41-2.04-44.68-14.32-51.77l.02-.03c-9.7-5.6-24.01-3.11-40.29 6.01-11.64 6.51-23.99 16.31-36.27 28.95l-12.85.19z"/><path class="fil3" d="m169.83 131.18 66.7-1.8.29 20.58-66.99-3.44z"/><path class="fil4" d="m326.82 127.69 3.23-10.46c1.37.68 3.23 1.26 5.57 1.78 2.34.51 5.06.77 8.14.77 2.32 0 4.46-.29 6.44-.87 1.98-.58 3.72-1.48 5.24-2.7 1.52-1.21 2.75-2.75 3.69-4.63.95-1.88 1.55-4.13 1.82-6.78h-24.2v-9.68h24.12c-.16-1.99-.65-3.85-1.46-5.59-.81-1.73-1.89-3.21-3.26-4.45-1.37-1.23-3.05-2.21-5.04-2.92-1.99-.71-4.27-1.07-6.85-1.07-3.36 0-6.25.34-8.67 1.03-2.42.68-4.32 1.42-5.69 2.2l-2.66-10.33c.99-.48 2.16-.94 3.5-1.39 1.35-.44 2.78-.84 4.3-1.17 1.52-.33 3.08-.6 4.68-.79 1.6-.19 3.17-.28 4.7-.28 4.14 0 7.96.52 11.45 1.57 3.5 1.05 6.52 2.76 9.08 5.12 2.56 2.37 4.56 5.46 6.03 9.28 1.46 3.82 2.2 8.51 2.2 14.08 0 5.78-.87 10.6-2.6 14.46-1.73 3.86-4.02 6.95-6.85 9.26-2.84 2.31-6.08 3.95-9.74 4.92-3.66.97-7.43 1.45-11.3 1.45-3.41 0-6.5-.29-9.25-.86-2.76-.58-4.95-1.23-6.6-1.96zM381.8 129.34V71.49h12.22v25.45l2.9-1.24 17.35-24.21h13.95L409.87 95.7l-4.76 3.14 4.96 3.31 20.98 27.19h-15.13l-18.67-24.45h-3.23v24.45zM432.7 100.43c0-5.62.87-10.35 2.62-14.17 1.77-3.82 4.03-6.9 6.77-9.24 2.75-2.34 5.81-4.03 9.2-5.08 3.36-1.05 6.66-1.57 9.88-1.57 3.58 0 6.61.22 9.08.64 2.45.43 4.46.96 6.05 1.57l-2.38 10.25c-1.37-.61-2.99-1.06-4.84-1.33-1.85-.27-4.18-.4-6.97-.4-2.47 0-4.72.4-6.74 1.21-2.01.82-3.73 2.01-5.16 3.59-1.43 1.59-2.54 3.6-3.35 6.01-.81 2.43-1.21 5.27-1.21 8.53 0 2.85.36 5.48 1.09 7.87.73 2.38 1.81 4.4 3.23 6.1 1.43 1.69 3.24 3.03 5.45 4 2.21.94 4.78 1.4 7.7 1.37 2.69 0 4.96-.24 6.81-.73 1.86-.48 3.48-1.12 4.88-1.89l2.42 9.74c-1.83 1.26-4.22 2.17-7.18 2.73-2.98.59-6.05.88-9.2.88-3.68 0-7.21-.55-10.6-1.65-3.39-1.1-6.38-2.86-9-5.28-2.61-2.42-4.69-5.54-6.25-9.35-1.53-3.79-2.3-8.38-2.3-13.78zM484.9 129.34V71.49h46.58v57.85h-12.22V82.22h-22.14v47.12zM542.21 129.34V71.49h37.28v10.73h-25.05v12.59h22.71v10.73h-22.71v13.06h25.45v10.74zM601.19 99c.22.05.58.11 1.08.16.49.06 1.01.11 1.58.16.54.03 1.05.06 1.53.08.46.03.83.04 1.09.04 1.59 0 3.19-.12 4.8-.36 1.59-.21 3.01-.67 4.27-1.37 1.24-.73 2.24-1.7 2.98-2.94.79-1.23 1.17-2.91 1.17-5.01 0-1.77-.36-3.19-1.09-4.23a7.825 7.825 0 0 0-2.82-2.54c-1.18-.62-2.54-1.04-4.07-1.25-1.51-.22-3.03-.33-4.56-.33-1.15 0-2.27.03-3.34.08-1.08.06-1.96.16-2.62.32V99zm-12.23 30.33V72.09c2.48-.43 5.23-.78 8.27-1.05 3.04-.24 6.07-.36 9.08-.36 3.09 0 6.19.24 9.34.68 3.14.46 5.96 1.4 8.46 2.82 2.5 1.41 4.54 3.35 6.12 5.85 1.59 2.5 2.4 5.83 2.42 9.97 0 3.63-.7 6.74-2.09 9.32-1.37 2.56-3.2 4.63-5.48 6.21-2.29 1.59-4.88 2.76-7.77 3.51-2.92.75-5.94 1.13-9.02 1.13h-1.37c-.67 0-1.39-.01-2.13-.04-.75-.03-1.45-.06-2.1-.12-.67-.05-1.16-.11-1.49-.16v19.49h-12.23zM635.07 82.22V71.49h48.89v10.73h-18.35v47.12h-12.23V82.22zM690.29 129.34V71.49h12.22v23.23h23.16V71.49h12.22v57.85h-12.22v-23.89h-23.16v23.89zM797.06 71.49h12.22v57.85h-12.22V71.49zm-36.26 47.52c1.37.27 3.13.4 5.28.4 3.36 0 6.12-.68 8.27-2.05 2.15-1.38 3.22-3.66 3.22-6.86 0-1.7-.3-3.08-.9-4.16a6.9 6.9 0 0 0-2.44-2.56c-1.03-.63-2.24-1.05-3.63-1.29-1.4-.23-2.88-.34-4.44-.34-.38 0-.83.03-1.35.08-.52.06-1.05.11-1.57.16s-1.01.13-1.46.22c-.44.1-.77.18-.99.22v16.18zm-12.22 9.76V71.49h12.22v20.57c.62-.1 1.63-.24 3.02-.4 1.4-.16 2.81-.24 4.24-.24 2.98 0 5.83.29 8.56.87 2.72.58 5.11 1.56 7.16 2.96 2.06 1.4 3.69 3.32 4.92 5.75 1.22 2.44 1.82 5.47 1.82 9.1 0 6.67-2.15 11.68-6.44 15.02-4.29 3.35-10.56 5.02-18.81 5.02-.83 0-1.91-.01-3.23-.04-1.31-.03-2.75-.09-4.3-.2-1.54-.1-3.12-.24-4.72-.4-1.6-.16-3.08-.4-4.46-.73zM827.88 58.79l11.05-1.73c.26 1.69.98 2.9 2.14 3.63 1.15.73 2.67 1.09 4.55 1.09 3.95 0 6.19-1.54 6.7-4.64l9.99 1.41c-.68 3.58-2.41 6.15-5.21 7.7-2.79 1.56-6.65 2.35-11.57 2.38-2.41 0-4.64-.16-6.69-.48-2.04-.3-3.83-.82-5.36-1.57-1.54-.78-2.79-1.78-3.75-3.02-.97-1.24-1.59-2.82-1.86-4.76zm-7.86 70.55V71.49h12.22v31.14l-.81 7.7h.48l4.48-7.7 23.43-31.14h9.16v57.85h-12.22V97.43l.68-7.34h-.4l-4.23 7.46-23.72 31.79h-9.08zM326.82 177.88c0-5.63.87-10.35 2.62-14.17 1.78-3.82 4.04-6.9 6.78-9.24s5.8-4.04 9.19-5.09c3.36-1.05 6.66-1.58 9.89-1.58 3.58 0 6.6.21 9.07.64 2.45.43 4.46.96 6.05 1.57l-2.38 10.25c-1.37-.62-2.98-1.06-4.84-1.33-1.86-.26-4.18-.4-6.98-.4-2.48 0-4.72.4-6.74 1.21-2.02.8-3.74 2.01-5.16 3.59-1.42 1.59-2.54 3.6-3.35 6.01-.81 2.42-1.21 5.26-1.21 8.52 0 2.85.36 5.48 1.09 7.87.73 2.37 1.8 4.4 3.23 6.1 1.42 1.69 3.24 3.03 5.45 3.99 2.21.94 4.77 1.4 7.71 1.37 2.69 0 4.96-.24 6.82-.73 1.85-.48 3.48-1.12 4.88-1.9l2.42 9.74c-1.82 1.26-4.22 2.17-7.18 2.73-2.99.59-6.05.89-9.2.89-3.68 0-7.21-.55-10.61-1.66a23.95 23.95 0 0 1-8.99-5.27c-2.61-2.43-4.69-5.54-6.25-9.36-1.53-3.79-2.3-8.39-2.3-13.78zM386.92 177.88c0 2.85.28 5.48.85 7.87.54 2.37 1.36 4.4 2.46 6.1 1.1 1.69 2.53 3.03 4.27 3.99 1.75.94 3.79 1.4 6.13 1.37 4.36 0 7.75-1.48 10.17-4.44 2.42-2.99 3.63-7.96 3.63-14.9 0-2.75-.24-5.3-.73-7.68-.48-2.37-1.29-4.43-2.42-6.18s-2.57-3.09-4.32-4.03c-1.75-.97-3.86-1.46-6.34-1.46-4.3 0-7.65 1.55-10.04 4.64-2.45 3.07-3.67 7.96-3.67 14.7zm-12.95 0c0-4.74.6-8.98 1.81-12.72s2.96-6.9 5.24-9.48c2.29-2.56 5.08-4.51 8.39-5.85 3.31-1.35 7.05-2.02 11.21-2.02 4.46 0 8.36.73 11.68 2.18 3.33 1.45 6.11 3.51 8.34 6.17 2.23 2.64 3.9 5.8 5.04 9.49 1.13 3.68 1.69 7.76 1.69 12.23 0 4.73-.62 8.97-1.85 12.74-1.24 3.74-3.01 6.88-5.32 9.44-2.31 2.55-5.12 4.5-8.42 5.84-3.3 1.35-7.02 2.03-11.16 2.06-4.46 0-8.34-.74-11.65-2.22-3.34-1.45-6.12-3.49-8.35-6.12-2.23-2.64-3.9-5.81-5-9.52-1.1-3.68-1.65-7.75-1.65-12.21zM447.79 197.38c.33.11.81.21 1.46.29.64.05 1.34.1 2.1.12l2.34.09c.8.02 1.52.04 2.14.04 1.53 0 2.99-.15 4.39-.45 1.4-.27 2.64-.72 3.71-1.35 1.08-.65 1.94-1.47 2.58-2.45.64-.98.95-2.19.93-3.63 0-1.8-.38-3.22-1.13-4.25a7.257 7.257 0 0 0-3.03-2.41c-1.24-.51-2.61-.84-4.11-.98-1.51-.14-3.04-.2-4.6-.2h-6.78v15.2zm0-24.32h4.12c.84 0 1.82-.01 2.94-.04 1.13-.03 2.09-.1 2.87-.21 2.31-.74 4.26-1.72 5.85-2.95 1.58-1.26 2.38-2.98 2.38-5.17 0-1.44-.3-2.62-.89-3.52a6.53 6.53 0 0 0-2.41-2.13c-1.03-.49-2.17-.82-3.43-.99-1.27-.17-2.57-.24-3.92-.24-1.58 0-3.03.03-4.35.08-1.32.06-2.36.15-3.15.25v14.92zm-11.73 33.35v-57.05c1.16-.16 2.46-.33 3.91-.51 1.46-.16 3.02-.29 4.72-.39 1.66-.11 3.39-.19 5.16-.24 1.78-.05 3.54-.08 5.28-.08 2.87 0 5.69.2 8.47.6 2.76.4 5.25 1.15 7.46 2.24 2.22 1.06 4.02 2.51 5.4 4.34 1.36 1.84 2.02 4.2 2.02 7.1 0 1.44-.21 2.89-.65 4.33a12.53 12.53 0 0 1-1.96 3.96c-.9 1.23-2.07 2.29-3.51 3.19-1.44.9-3.19 1.54-5.26 1.92v.49c1.84.16 3.57.58 5.17 1.26s3 1.61 4.23 2.81c1.2 1.19 2.13 2.62 2.81 4.3.71 1.68 1.06 3.67 1.06 5.97 0 3.02-.7 5.59-2.11 7.7-1.41 2.14-3.25 3.89-5.55 5.24-2.27 1.37-4.86 2.38-7.78 3.05-2.95.67-5.93.99-8.95.96h-3.97c-1.62 0-3.35-.04-5.21-.12-1.86-.08-3.72-.2-5.61-.35-1.91-.16-3.63-.4-5.16-.71zM488.97 206.78v-57.84h37.28v10.73h-25.06v12.59h22.72v10.72h-22.72v13.07h25.45v10.73zM531.37 159.67v-10.73h48.88v10.73H561.9v47.11h-12.22v-47.11z"/></g></g></svg>