<svg xmlns="http://www.w3.org/2000/svg" xml:space="preserve" width="500" height="402" style="shape-rendering:geometricPrecision;text-rendering:geometricPrecision;image-rendering:optimizeQuality;fill-rule:evenodd;clip-rule:evenodd" viewBox="0 0 294.82 237.21"><defs><style>.fil2{fill:#1f3153}.fil3{fill:#f9b008}</style></defs><g id="Слой_x0020_1"><g id="_2131264188576"><path d="M146.6 90.11h-15.46v-6.05c0-2.1-.18-3.53-.54-4.28-.36-.76-1.03-1.13-2-1.13s-1.62.32-1.95.98c-.34.66-.5 2.13-.5 4.41v24.7c0 1.87.25 3.27.75 4.2.48.93 1.22 1.4 2.19 1.4 1.12 0 1.88-.48 2.28-1.45.4-.97.6-2.8.6-5.51v-6.2h14.63c-.03 4.17-.18 7.31-.47 9.39-.28 2.09-1.19 4.23-2.73 6.42-1.52 2.2-3.53 3.85-6 4.97-2.47 1.12-5.52 1.67-9.16 1.67-4.63 0-8.31-.77-11.03-2.32-2.7-1.53-4.63-3.69-5.75-6.46-1.12-2.78-1.69-6.71-1.69-11.83V88.15c0-4.46.46-7.81 1.39-10.07.91-2.26 2.88-4.28 5.9-6.05 3.01-1.78 6.66-2.67 10.99-2.67 4.28 0 7.94.89 10.98 2.65 3.04 1.77 5.06 3.99 6.06 6.68 1.01 2.69 1.51 6.5 1.51 11.42zm41.87-1.41v12.83c0 4.71-.25 8.15-.73 10.36-.49 2.2-1.52 4.24-3.12 6.15-1.59 1.91-3.64 3.31-6.15 4.23-2.51.9-5.38 1.36-8.62 1.36-3.63 0-6.71-.39-9.21-1.16-2.53-.78-4.48-1.95-5.86-3.51-1.4-1.58-2.4-3.47-3-5.7-.59-2.22-.88-5.55-.88-10V89.85c0-4.88.54-8.67 1.62-11.42 1.08-2.73 3.03-4.92 5.84-6.58 2.82-1.65 6.42-2.49 10.8-2.49 3.67 0 6.83.54 9.48 1.6 2.63 1.07 4.67 2.45 6.11 4.16 1.42 1.71 2.41 3.47 2.93 5.29.53 1.82.79 4.58.79 8.29zm-16.37-3.94c0-2.68-.16-4.38-.45-5.06-.3-.7-.94-1.05-1.92-1.05-.99 0-1.64.35-1.97 1.05-.32.68-.49 2.38-.49 5.06v23.62c0 2.48.17 4.09.49 4.83.33.75.97 1.13 1.92 1.13.99 0 1.63-.34 1.94-1.02.32-.69.48-2.16.48-4.42V84.76zm43.16 16.82h-4.99v21.08h-16.38V70.33h16.46V90.6h4.91v-.71c0-3.1.19-5.78.57-8.03.37-2.24 1.33-4.32 2.87-6.21 1.52-1.9 3.53-3.31 6.01-4.24 2.49-.93 5.44-1.4 8.85-1.4 3.58 0 6.7.47 9.37 1.4 2.69.93 4.84 2.31 6.46 4.14 1.62 1.82 2.6 3.66 2.93 5.49.35 1.85.52 4.42.52 7.7v12.73c0 4.8-.25 8.34-.75 10.64-.5 2.3-1.62 4.32-3.37 6.05-1.74 1.74-3.86 2.94-6.36 3.6-2.48.66-6.11.98-10.86.98-2.36 0-4.31-.14-5.88-.39-1.55-.27-3.11-.93-4.68-1.98-1.57-1.05-2.79-2.37-3.66-3.97-.86-1.6-1.41-3.39-1.66-5.36-.24-1.98-.36-4.56-.36-7.76v-1.7zm21.2 9.92V84.76c0-2.42-.13-4.04-.36-4.87-.25-.83-.93-1.24-2.02-1.24-1.11 0-1.81.43-2.06 1.28-.26.86-.38 2.46-.38 4.83v25.05c0 3.02.81 4.53 2.44 4.53.69 0 1.27-.27 1.71-.81.45-.53.67-1.21.67-2.03zm50.85-16.88c2.58.78 4.46 1.94 5.68 3.48 1.22 1.52 1.83 3.9 1.83 7.13 0 3.58-.28 6.16-.82 7.79-.54 1.62-1.58 3.26-3.13 4.93-1.56 1.67-3.68 2.86-6.4 3.6-2.7.75-5.69 1.11-9.01 1.11-6.56 0-11.16-1.25-13.78-3.74-2.62-2.51-3.94-7.03-3.94-13.6v-3.82h15.55v7.36c0 2.63.94 3.95 2.83 3.95.99 0 1.76-.38 2.28-1.13.53-.74.79-2.72.79-5.9v-3.32c0-1.52-.52-2.57-1.58-3.15-1.05-.58-3.24-.88-6.57-.88V91h1.27c2.28 0 3.79-.05 4.48-.16.71-.11 1.29-.47 1.74-1.12.44-.64.66-1.73.66-3.25v-1.12c0-2.23-.25-3.66-.75-4.27-.5-.6-1.22-.9-2.16-.9-1.99 0-2.99 1.16-2.99 3.49v4.26h-15.55v-2.32c0-5.54 1.39-9.45 4.16-11.78 2.77-2.33 7.41-3.5 13.91-3.5 6.22 0 10.84 1.12 13.84 3.35 3.01 2.24 4.51 5.69 4.51 10.38 0 3.15-.49 5.49-1.47 7.02-.97 1.55-2.77 2.72-5.38 3.54zM127.23 141.01c0 2.45-.07 4.18-.21 5.2-.13 1.03-.56 1.96-1.29 2.8-.72.85-1.7 1.5-2.93 1.95-1.23.45-2.67.68-4.3.68-1.56 0-2.95-.22-4.18-.65-1.24-.42-2.24-1.06-2.99-1.92-.75-.85-1.2-1.78-1.34-2.78-.15-1.01-.22-2.77-.22-5.28v-4.18c0-2.46.07-4.19.21-5.21.13-1.02.56-1.96 1.29-2.8.72-.84 1.7-1.49 2.93-1.95 1.23-.45 2.66-.67 4.3-.67 1.56 0 2.95.21 4.18.64 1.24.43 2.24 1.06 2.99 1.92.75.85 1.2 1.78 1.34 2.79.14 1.01.22 2.77.22 5.28v4.18zm-7.57-8.03c0-1.13-.08-1.85-.22-2.17-.15-.32-.45-.48-.9-.48-.39 0-.68.13-.89.39-.2.25-.31 1.01-.31 2.26v11.4c0 1.42.07 2.29.2 2.62.14.34.45.5.94.5.5 0 .83-.19.97-.57.14-.38.21-1.29.21-2.73v-11.22zM149 155.31h-5.22v-4.2h-13.71v-24.42h7.57v19.54h2.24v-19.54h7.57v19.54H149v9.08zm2.01-28.62h12.61v4.88h-5.03v4.66h4.7v4.63h-4.7v5.37h5.55v4.88h-13.13v-24.42zm32.62 0v24.42h-7.57v-10.25h-2.2v10.25h-7.57v-24.42h7.57v8.74h2.2v-8.74h7.57zm31.73 28.62h-5.22v-4.2h-23.45v-24.42h7.57v19.54h2.17v-19.54H204v19.54h2.24v-19.54h7.57v19.54h1.55v9.08zm19.03-4.2h-6.32V140l-3.93 11.11h-6.58v-24.42h6.32v11.02l4.22-11.02h6.29v24.42zm3.05-24.42h7.57l.04 10.31c1.4-.03 2.12-.69 2.17-1.99l.14-4.76c.05-1.76.46-2.95 1.22-3.56h6.98c-.67.59-1 1.82-.99 3.68l.03 4.19c.03 2.53-1.67 3.98-5.09 4.33 3.42.35 5.12 1.81 5.09 4.39l-.03 3.88c-.01 1.85.32 3.17.99 3.95h-6.98c-.81-.61-1.22-1.8-1.22-3.56v-4.76c0-.61-.21-1.09-.64-1.45-.43-.37-.99-.56-1.67-.57l-.04 10.34h-7.57v-24.42zm36.94 14.32c0 2.45-.06 4.18-.2 5.2-.14 1.03-.57 1.96-1.29 2.8-.72.85-1.7 1.5-2.93 1.95-1.24.45-2.67.68-4.3.68-1.56 0-2.95-.22-4.19-.65-1.24-.42-2.23-1.06-2.98-1.92-.75-.85-1.2-1.78-1.35-2.78-.14-1.01-.21-2.77-.21-5.28v-4.18c0-2.46.06-4.19.2-5.21.14-1.02.57-1.96 1.29-2.8.72-.84 1.7-1.49 2.94-1.95 1.23-.45 2.66-.67 4.3-.67 1.55 0 2.94.21 4.18.64 1.24.43 2.23 1.06 2.98 1.92.76.85 1.2 1.78 1.35 2.79.14 1.01.21 2.77.21 5.28v4.18zm-7.57-8.03c0-1.13-.07-1.85-.22-2.17-.14-.32-.44-.48-.9-.48-.38 0-.68.13-.89.39-.2.25-.3 1.01-.3 2.26v11.4c0 1.42.06 2.29.2 2.62.13.34.45.5.94.5.5 0 .82-.19.96-.57.15-.38.21-1.29.21-2.73v-11.22zm10.42-6.29h7.52c2.38 0 4.18.15 5.4.47 1.23.31 2.21.94 2.97 1.89.75.95 1.12 2.48 1.12 4.59 0 1.42-.26 2.42-.79 2.98-.54.56-1.59.99-3.16 1.29 1.75.34 2.94.89 3.57 1.65.62.78.93 1.96.93 3.55v2.26c0 1.66-.22 2.88-.67 3.67-.45.8-1.16 1.34-2.14 1.64-.98.29-2.99.43-6.02.43h-8.73v-24.42zm7.57 4.17v5.43c.32-.01.56-.01.74-.01.72 0 1.19-.16 1.38-.46.21-.31.3-1.19.3-2.64 0-.76-.08-1.3-.24-1.61-.17-.3-.38-.5-.64-.58-.27-.08-.78-.12-1.54-.13zm0 9.23v6.85c1.04-.03 1.71-.17 1.99-.42.29-.25.43-.87.43-1.86v-2.29c0-1.05-.12-1.68-.38-1.9-.26-.23-.94-.35-2.04-.38zm-157.98 40.28h-6.32v-11.11l-3.93 11.11h-6.58v-24.43h6.32v11.03l4.23-11.03h6.28v24.43zm24.01-6.64c0 2.36-.68 4.08-2.06 5.18-1.38 1.1-3.49 1.64-6.35 1.64-3.03 0-5.22-.53-6.54-1.6-1.33-1.06-1.99-2.88-1.99-5.47v-1.91h7.24v3.74c0 .98.42 1.48 1.24 1.48.6 0 .95-.19 1.06-.58.11-.38.16-1.31.16-2.79v-4.04h-4.19v-3.56h4.19v-4.16c0-.79-.06-1.34-.18-1.64-.12-.31-.44-.46-.95-.46-.89 0-1.33.48-1.33 1.45v2.81h-7.24v-2.07c0-2.28.62-3.85 1.86-4.69 1.24-.85 3.41-1.27 6.47-1.27 2.84 0 4.98.51 6.43 1.54 1.45 1.02 2.18 2.52 2.18 4.51v11.89zm2-17.79h7.57l.04 10.32c1.4-.03 2.12-.7 2.17-1.99l.14-4.77c.05-1.76.46-2.94 1.22-3.56h6.98c-.67.6-1.01 1.83-.99 3.68l.03 4.19c.03 2.53-1.67 3.98-5.09 4.33 3.42.35 5.12 1.82 5.09 4.39l-.03 3.88c-.02 1.86.32 3.17.99 3.96h-6.98c-.81-.62-1.22-1.8-1.22-3.56v-4.76c0-.61-.21-1.1-.64-1.46-.43-.37-.99-.56-1.67-.57l-.04 10.35h-7.57v-24.43zm36.37 10.66h-7.57v-4.24c0-1.24-.08-2.01-.23-2.31-.16-.31-.52-.46-1.06-.46-.62 0-1.01.18-1.17.55-.17.38-.26 1.18-.26 2.42v11.33c0 1.19.09 1.96.26 2.32.16.36.53.54 1.11.54.56 0 .93-.18 1.1-.54.17-.36.25-1.22.25-2.56v-3.07h7.57v.95c0 2.53-.21 4.33-.63 5.38-.42 1.06-1.37 1.99-2.82 2.79-1.46.8-3.25 1.19-5.38 1.19-2.21 0-4.03-.33-5.47-1.01-1.44-.67-2.39-1.6-2.86-2.8-.46-1.19-.7-2.98-.7-5.37v-7.14c0-1.76.08-3.07.22-3.95.14-.88.57-1.73 1.28-2.55.71-.81 1.7-1.45 2.96-1.92s2.72-.7 4.36-.7c2.22 0 4.06.36 5.51 1.09 1.45.72 2.4 1.62 2.86 2.7.45 1.08.67 2.76.67 5.04v2.32zm19.09 13.77h-7.57v-19.55h-2.21v19.55h-7.57v-24.43h17.35v24.43zm2.08-24.43h12.61v4.88h-5.04v4.66h4.71v4.64h-4.71v5.37h5.55v4.88h-13.12v-24.43zm14.3 0h7.61c2.06 0 3.64.14 4.75.41 1.1.27 1.94.66 2.5 1.17.55.52.93 1.14 1.13 1.87.19.73.29 1.85.29 3.38v2.13c0 1.55-.19 2.69-.57 3.4-.38.71-1.09 1.27-2.1 1.65-1.03.38-2.36.57-4.01.57h-2.03v9.85h-7.57v-24.43zm7.57 4.17v6.22c.22.01.4.02.55.02.7 0 1.17-.14 1.44-.43s.4-.88.4-1.79v-2.01c0-.83-.15-1.38-.46-1.63-.31-.25-.95-.38-1.93-.38zm25.12-4.17v4.88h-4.44v19.55h-7.57v-19.55h-4.49v-4.88h16.5zm18 14.32c0 2.45-.07 4.19-.21 5.21-.14 1.02-.57 1.95-1.29 2.8-.72.84-1.7 1.49-2.93 1.94-1.23.46-2.67.68-4.3.68-1.56 0-2.95-.21-4.19-.64-1.23-.43-2.23-1.07-2.98-1.92-.75-.86-1.2-1.79-1.35-2.79-.14-1.01-.21-2.77-.21-5.28v-4.18c0-2.45.07-4.19.21-5.21.13-1.02.56-1.95 1.28-2.8.73-.84 1.71-1.49 2.94-1.94 1.23-.45 2.66-.68 4.3-.68 1.55 0 2.94.22 4.18.64 1.24.43 2.24 1.07 2.98 1.92.76.86 1.21 1.79 1.35 2.79.14 1.01.22 2.77.22 5.28v4.18zm-7.57-8.02c0-1.13-.08-1.86-.22-2.18-.15-.31-.45-.47-.91-.47-.38 0-.68.13-.88.38-.21.26-.31 1.01-.31 2.27v11.4c0 1.41.07 2.29.2 2.62.14.33.45.49.94.49.5 0 .83-.19.97-.57.14-.38.21-1.29.21-2.72v-11.22zm9.44-6.3h7.52c2.38 0 4.18.16 5.4.47 1.23.31 2.21.94 2.97 1.89.75.95 1.12 2.48 1.12 4.59 0 1.43-.26 2.42-.79 2.98-.54.57-1.59.99-3.16 1.3 1.75.33 2.94.88 3.57 1.65.62.77.93 1.95.93 3.54v2.27c0 1.65-.22 2.87-.67 3.67-.45.79-1.16 1.34-2.14 1.63-.98.29-2.99.44-6.02.44h-8.73v-24.43zm7.57 4.17v5.44c.32-.01.56-.02.74-.02.72 0 1.19-.15 1.38-.46.21-.31.3-1.19.3-2.63 0-.77-.08-1.3-.24-1.61-.17-.31-.38-.5-.64-.58-.27-.08-.78-.13-1.54-.14zm0 9.23v6.86c1.04-.03 1.71-.17 1.99-.42.29-.26.43-.88.43-1.87v-2.28c0-1.05-.12-1.68-.38-1.91-.26-.22-.94-.34-2.04-.38zm-164.52 30.92c-.6.55-1.4.98-2.38 1.31-.98.32-1.97.49-2.97.49-1.8 0-3.11-.43-3.93-1.27-.82-.84-1.23-2.15-1.23-3.92V185.2h7.57v10.99c0 .95.1 1.61.3 1.97.19.35.52.53.97.53 1.11 0 1.67-.81 1.67-2.44V185.2h7.57v24.42h-7.57v-9.36zm9.65-15.06h12.6v4.88h-5.03v4.66h4.7v4.63h-4.7v5.37h5.55v4.88h-13.12V185.2zm14.29 0h7.62c2.06 0 3.64.13 4.75.4 1.1.28 1.93.67 2.49 1.18.56.51.93 1.14 1.13 1.86.2.73.3 1.86.3 3.39v2.12c0 1.56-.19 2.69-.58 3.4-.38.72-1.08 1.27-2.1 1.65-1.02.38-2.36.57-4.01.57h-2.02v9.85h-7.58V185.2zm7.58 4.17v6.22c.21.01.39.01.55.01.69 0 1.17-.14 1.44-.43.26-.28.39-.88.39-1.78v-2.02c0-.83-.15-1.38-.46-1.63-.31-.25-.95-.37-1.92-.37zm27.25-4.17v24.42h-7.57v-10.25h-2.21v10.25h-7.57V185.2h7.57v8.74h2.21v-8.74h7.57zm19.32 14.31c0 2.46-.07 4.19-.21 5.21-.13 1.03-.56 1.96-1.28 2.8-.73.85-1.71 1.49-2.94 1.95-1.23.45-2.66.68-4.3.68-1.55 0-2.94-.22-4.18-.65-1.24-.42-2.24-1.06-2.98-1.92-.76-.85-1.21-1.78-1.35-2.79-.14-1-.22-2.76-.22-5.28v-4.17c0-2.46.07-4.19.21-5.21.14-1.03.56-1.96 1.29-2.8.72-.85 1.7-1.49 2.93-1.95 1.23-.45 2.67-.68 4.3-.68 1.56 0 2.95.22 4.19.65 1.23.42 2.23 1.06 2.98 1.92.75.85 1.2 1.78 1.35 2.79.14 1 .21 2.76.21 5.28v4.17zm-7.57-8.02c0-1.13-.07-1.86-.22-2.17-.15-.32-.45-.48-.9-.48-.39 0-.68.13-.89.39-.2.25-.31 1.01-.31 2.26v11.4c0 1.42.07 2.29.21 2.62.13.33.44.5.93.5.51 0 .83-.19.97-.57.14-.38.21-1.29.21-2.73v-11.22zm22.84 4.31c1.09.32 1.91.83 2.45 1.53.53.71.8 2.38.8 4.99 0 1.94-.26 3.45-.79 4.52-.53 1.07-1.43 1.88-2.73 2.44-1.29.56-2.94.84-4.96.84-2.29 0-4.1-.33-5.41-.98-1.31-.65-2.17-1.44-2.58-2.38-.41-.94-.62-2.58-.62-4.9v-1.93h7.24v3.97c0 1.06.07 1.73.23 2.02.14.28.48.43.99.43.57 0 .94-.18 1.12-.55.18-.36.27-1.3.27-2.83v-1.7c0-.93-.12-1.62-.37-2.05a1.85 1.85 0 0 0-1.12-.85c-.49-.14-1.44-.21-2.85-.23v-3.56c1.72 0 2.78-.05 3.19-.16.41-.11.7-.35.88-.73.18-.37.27-.95.27-1.74v-1.35c0-.86-.1-1.42-.31-1.69-.22-.27-.54-.41-.98-.41-.51 0-.85.15-1.04.43-.19.29-.28.89-.28 1.83v2h-7.24v-2.08c0-2.33.64-3.9 1.9-4.71 1.27-.82 3.29-1.23 6.05-1.23 3.46 0 5.8.56 7.03 1.7 1.23 1.14 1.85 2.72 1.85 4.73 0 1.37-.22 2.36-.66 2.97-.45.6-1.22 1.16-2.33 1.66zm5.12-10.6h12.61v4.88h-5.04v4.66h4.71v4.63h-4.71v5.37h5.55v4.88h-13.12V185.2zm37.6 0v24.42h-6.62l-.01-16.49-2.63 16.49h-4.63l-2.78-16.12-.02 16.12h-6.61V185.2h9.77c.27 1.48.57 3.21.9 5.2l1.07 6.2 1.72-11.4h9.84zm19.68 18.71c0 1.82-.29 3.12-.85 3.92-.56.79-1.41 1.29-2.55 1.49-1.15.2-2.97.3-5.47.3h-8.74V185.2H266v8.37h1.17c2.33 0 4.1.11 5.3.34 1.19.23 2.08.74 2.68 1.53.59.79.89 2.03.89 3.72v4.75zm-7.57-.74v-3.53c0-1.03-.13-1.65-.37-1.87-.25-.22-.95-.34-2.1-.38v8.03c.96 0 1.61-.1 1.95-.31.34-.2.52-.85.52-1.94zm26.1 6.45H287v-10.99c-.95 0-1.57.13-1.85.4-.28.26-.43.85-.43 1.76v8.83h-7.02v-7.28c0-1.24.08-2.18.25-2.82.16-.64.53-1.18 1.12-1.6.59-.42 1.52-.77 2.79-1.06-1.74-.12-2.86-.54-3.38-1.24s-.78-1.95-.78-3.76c0-1.63.24-2.9.72-3.82.48-.92 1.18-1.58 2.08-1.98.91-.4 1.96-.65 3.15-.73 1.18-.09 3.03-.13 5.56-.13h5.36v24.42zM287 194.8v-5.4h-.36c-.63 0-1.11.12-1.43.35-.33.24-.49.74-.49 1.52v1.34c0 .91.14 1.5.41 1.77.27.28.89.42 1.87.42z" style="fill:#1f3153;fill-rule:nonzero"/><g><path class="fil2" d="M49.07 3.78C41.08 40.39 11.3 47.14 11.3 72.33c0 15.02 10.64 26.73 25.49 31.01 3.99 1.15 8.28 5.73 12.75 5.73h.61c4.47 0 8.76-4.58 12.75-5.73 14.85-4.28 25.5-15.99 25.5-31.01 0-25.19-29.79-31.94-37.77-68.55.03-1.31-1.34-1.19-1.56 0zm2.7 56.63c4.53 1.54 8.59 6.35 8.59 13.4 0 7.04-4.7 13.83-10.49 13.83h-.01c-5.79 0-10.48-6.79-10.48-13.83s4.06-11.85 8.57-13.39c-.12-6.59.75-43.23 1.91-43.21 1.17.02 2.04 36.62 1.91 43.2z"/><path class="fil2" d="M49.83.17c1.57 0 2.84 1.27 2.84 2.84 0 1.57-1.27 2.84-2.84 2.84-1.57 0-2.84-1.27-2.84-2.84 0-1.57 1.27-2.84 2.84-2.84z" style="stroke:#1f3153;stroke-width:.35;stroke-miterlimit:22.9256"/><path class="fil3" d="M47.15 156.87c-7.19-12.56-35.06-9.33-46.14-28.32 0 0-.16 30.16-.04 31.31.17 1.67.33 2.94.54 4.03 3 12.76 13.86 14.79 25.2 18.98 7.95 2.63 15.87 4.59 20.88 10.17 0 0 .86-25.57.66-28.62-.26-4.02-.4-5.32-1.1-7.55z"/><path class="fil3" d="M47.15 197.42c-7.19-12.55-35.06-9.33-46.14-28.32 0 0-.16 30.16-.04 31.31.46 4.44.96 6.12 2.4 8.91.57 1.1 1.21 2.11 1.91 3.05 4.87 5.97 13.01 7.89 21.41 10.99 7.95 2.63 15.87 4.59 20.89 10.18 0 0 .85-25.58.65-28.62-.25-3.99-.4-5.3-1.08-7.5zM53.03 118.26v-.01l.01-.02c.02-.03.01-.02-.01.02 2.21-12.2 36.23-4.61 41.66-44.02 2.99 6.31 7.96 31.45 4.19 47.92-.03.13-.06.26-.09.38-.03.14-.06.27-.1.41-5.38 20.66-33.6 16.36-45.98 28.15 0 0-1.26-28.15.02-32.25.06-.14.11-.26.17-.37l.07-.12c-.02.04-.05.08-.07.12.03-.06.07-.12.1-.18l.03-.03zm39.88 15.63c-.06.06-.12.13-.19.19.07-.06.13-.13.19-.19zm-.29.28a21.456 21.456 0 0 0 0 0zm-1.15 1.03c-.18.14-.35.28-.52.41.17-.13.34-.27.52-.41z"/><path class="fil3" d="M53.07 156.87c7.19-12.55 35.06-9.33 46.15-28.32 0 0 .15 30.16.03 31.31-.17 1.67-.33 2.94-.54 4.04-2.99 12.75-13.86 14.78-25.2 18.97-7.95 2.63-15.87 4.59-20.88 10.17 0 0-.85-25.57-.66-28.62.26-4.02.4-5.32 1.1-7.55z"/><path class="fil3" d="M53.07 197.42c7.19-12.55 35.06-9.33 46.15-28.32 0 0 .15 30.16.03 31.31-.45 4.44-.96 6.12-2.4 8.91-.57 1.1-1.21 2.12-1.91 3.05-4.87 5.97-13.01 7.89-21.41 11-7.95 2.62-15.87 4.59-20.88 10.17 0 0-.86-25.57-.66-28.62.26-3.99.4-5.3 1.08-7.5zM47.21 118.26c-2.19-12.21-36.24-4.6-41.66-44.03-3 6.33-7.99 31.59-4.16 48.06-.03-.16-.05-.31-.06-.47 4.63 21.95 33.65 17.28 46.25 29.28 0 0 1.69-29.71-.37-32.84.02.03.03.05.03.05-.01-.02-.02-.04-.03-.05zM5.66 132.01a19.44 19.44 0 0 0 2.97 3.04c-1.07-.91-2.07-1.92-2.97-3.04z"/><path class="fil2" d="M52.59 198.36c.14-.34.31-.71.5-1.01-.7 2.24-.84 3.54-1.1 7.57-.2 3.05.66 28.62.66 28.62 5.01-5.58 12.93-7.55 20.88-10.17 11.34-4.2 22.21-6.23 25.2-18.98-.25 2.4-.92 4.18-1.48 5.31-2.79 5.59-7.27 8.83-12.48 11.16-10.89 5.22-25.11 6.58-33.63 16.35 0 0 .02-31.08.03-31.23.34-4.18.81-6.07 1.42-7.62zM52.58 157.87c.13-.34.3-.71.5-1.02-.71 2.24-.85 3.54-1.11 7.57-.19 3.05.66 28.62.66 28.62 5.01-5.58 12.93-7.54 20.88-10.17 11.34-4.19 22.21-6.22 25.2-18.97-.24 2.39-.92 4.18-1.48 5.31-2.79 5.58-7.27 8.83-12.48 11.15-10.88 5.23-25.11 6.58-33.63 16.36 0 0 .02-31.08.03-31.23.34-4.19.81-6.08 1.43-7.62zM53.04 118.23c.07-.12-.27.46-.17.28-1.51 2.48-.16 32.58-.16 32.58 12.6-12 41.62-7.33 46.25-29.28-.26 2.35-1.24 5.05-1.8 6.18-8.41 17.23-33.57 13.04-46.02 27.33.68-4.46-1.52-31.9 1.9-37.09zM47.25 118.25c-.07-.13.06.19-.04.01 2.06 3.13.37 32.84.37 32.84-12.6-12-41.62-7.33-46.25-29.28.26 2.36 1.24 5.06 1.79 6.18 8.42 17.23 33.57 13.05 46.03 27.34-.68-4.47 1.52-31.91-1.9-37.09zM47.65 157.87c-.14-.35-.3-.71-.5-1.02.7 2.24.84 3.54 1.1 7.57.2 3.05-.66 28.62-.66 28.62-5.01-5.58-12.93-7.54-20.88-10.17-11.34-4.19-22.2-6.22-25.2-18.98.25 2.4.92 4.19 1.49 5.32 2.78 5.58 7.26 8.83 12.47 11.15 10.89 5.23 25.11 6.58 33.64 16.36 0 0-.03-31.08-.04-31.24-.34-4.18-.8-6.07-1.42-7.61zM47.63 198.36c-.14-.34-.3-.71-.5-1.02.7 2.25.84 3.54 1.1 7.58.2 3.04-.65 28.62-.65 28.62-5.02-5.59-12.94-7.55-20.89-10.18-11.34-4.19-22.2-6.22-25.2-18.97.25 2.39.92 4.18 1.49 5.31 2.78 5.59 7.26 8.83 12.47 11.15 10.89 5.23 25.11 6.58 33.64 16.36 0 0-.03-31.08-.04-31.23-.33-4.18-.8-6.08-1.42-7.62z"/></g></g></g></svg>