<svg xmlns="http://www.w3.org/2000/svg" xml:space="preserve" width="342.618" height="113.193" style="shape-rendering:geometricPrecision;text-rendering:geometricPrecision;image-rendering:optimizeQuality;fill-rule:evenodd;clip-rule:evenodd" viewBox="0 0 5553.02 1834.59"><defs><style>.fil0{fill:#be0106}</style></defs><g id="Layer_x0020_1"><g id="_2429917998720"><path class="fil0" d="M0 0v1834.59h1840.75V0H0zm874.19 1532.92H744.91V732.61h412.49v123.14H874.2v677.17zm541.78-467.88c-67.72 61.55-160.07 104.65-258.57 110.8v357.07h-129.28v-480.19h73.87c86.2 0 166.23-30.79 227.79-80.03 43.1-43.1 73.88-104.65 73.88-178.52v-30.78c0-61.57-24.63-116.97-67.72-160.07-61.56-49.25-135.45-73.86-221.63-73.86H591.02v1003.46H461.74V400.18h652.57c116.97 0 221.63 43.08 307.82 110.8 67.71 61.57 110.81 153.92 110.81 252.42v30.78c0 110.82-49.25 203.14-116.96 270.87zM2499.47 147.75h233.96v55.42h-178.54v295.5h-55.42zM2751.9 233.94h55.38v178.53l123.13-178.53h61.57v264.73h-61.57V326.29l-123.13 172.38h-55.38zM3035.06 498.67v-49.25H3053.55c30.76 0 49.24-12.31 49.24-215.48h203.15v264.74h-61.56V289.36h-80.04c0 190.85-36.93 215.47-98.5 215.47-12.29 0-24.61 0-36.93-6.15zM3385.99 233.94h55.39v92.35h61.57c55.42 0 104.67 30.79 104.67 86.18 0 55.42-36.95 86.2-98.5 86.2h-123.13V233.93zm116.96 215.48c30.78 0 49.25-12.31 49.25-36.95 0-24.61-18.47-36.93-49.25-36.93h-61.57v73.88h61.57zM3644.55 449.42h24.62c18.48-49.24 30.78-104.66 30.78-160.07v-55.42h203.17v215.48h43.1l-12.31 116.97h-49.25v-67.72h-184.7l-6.15 67.72h-49.25V449.41zm203.15 0V289.35h-86.19v43.08c0 43.1-12.31 80.03-24.61 116.98h110.8zM4001.62 233.94h55.4v178.53c43.1-61.55 86.2-116.96 129.28-178.53h55.42v264.74h-55.42V326.3l-129.28 172.38h-55.4V233.94zM4371.01 400.18c-36.95-6.17-61.56-36.95-61.56-73.89v-6.15c0-49.25 36.93-86.2 104.65-86.2h129.29v264.74h-55.4v-86.2h-55.42l-67.71 86.2h-67.72l73.88-98.5zm110.82-36.95v-80.04h-61.57c-30.78 0-49.25 18.49-49.25 43.1 0 24.64 18.47 36.94 49.25 36.94h61.57zM2499.47 751.07h153.92c61.57 0 116.97 49.25 116.97 116.97 0 73.86-67.72 110.8-141.6 110.8h-67.72v110.81h-61.57V751.06zm129.29 178.52c49.25 0 80.03-18.45 80.03-61.55 0-36.94-30.78-61.55-80.03-61.55h-67.72v123.1h67.72zM2819.6 837.28h55.41v172.35l129.29-172.35h55.4v258.53h-55.4V917.3l-129.29 178.51h-55.41zM3108.95 1052.73l36.94-36.93c18.46 18.46 43.1 36.93 67.71 36.93 43.1 0 73.89-30.79 80.04-67.72h-104.65v-43.1h104.65c-6.15-30.76-36.94-61.55-73.87-61.55h-6.17c-24.61 0-49.25 12.32-67.71 30.79l-30.79-30.79c24.64-30.78 61.57-49.25 98.5-49.25h6.17c73.87 0 135.43 61.57 135.43 135.44 0 73.86-61.56 135.43-141.6 135.43-43.08 0-80.03-18.47-104.65-49.25zM3379.84 1095.81l6.15-49.25h18.46c30.78 0 49.25-18.47 49.25-209.29h203.17v258.54h-61.57V892.67h-86.18c0 184.67-36.95 209.3-92.35 209.3-12.32 0-24.64-6.17-36.93-6.17zM3786.16 892.68h-86.2v-55.4h233.95v55.4h-86.2v203.13h-55.4zM3964.69 966.55v-6.17c0-67.7 61.55-135.42 141.58-135.42 80.03 0 141.6 67.72 141.6 135.42 0 80.03-61.57 141.6-141.6 141.6s-141.58-61.57-141.58-135.43zm221.62 0v-6.17c0-43.08-36.93-73.85-80.03-73.85-43.08 0-80.03 30.77-80.03 73.85v12.32c0 43.1 36.95 80.03 80.03 80.03 43.1 0 80.03-36.93 80.03-80.03v-6.15zM4309.45 837.28h61.56v43.08c18.47-30.78 49.25-49.25 86.18-49.25 67.72 0 123.14 61.57 123.14 123.12v18.47c0 73.86-55.42 129.28-123.14 129.28-36.93 0-67.71-18.47-86.18-43.1v116.96h-61.56V837.27zm215.47 123.1v-6.15c0-36.93-36.93-67.7-73.87-67.7-43.09 0-80.03 30.77-80.03 73.85v12.32c0 43.1 30.79 80.03 73.87 80.03 43.1 0 80.03-36.93 80.03-80.03v-12.32zM4635.73 966.55v-6.17c0-67.7 61.56-135.42 141.6-135.42 73.87 0 135.44 67.72 135.44 135.42 0 80.03-61.57 141.6-135.44 141.6h-6.16c-73.87 0-135.43-61.57-135.43-135.43zm221.63 0v-6.17c0-43.08-36.95-73.85-86.2-73.85-43.08 0-80.03 30.77-80.03 73.85v12.32c0 43.1 36.95 80.03 80.03 80.03h6.16c43.09 0 80.04-36.93 80.04-80.03v-6.15zM4980.48 837.28h135.45c49.25 0 86.18 24.62 86.18 67.72 0 18.45-18.46 43.06-43.1 49.23 30.79 6.15 55.42 36.93 55.42 67.71 0 43.1-36.95 73.87-98.5 73.87h-135.45V837.27zm123.13 104.63c24.62 0 36.94-12.31 36.94-24.61 0-18.47-12.32-30.77-36.94-30.77h-67.71v55.38h67.71zm6.15 104.65c24.64 0 43.1-12.3 43.1-30.76 0-24.64-18.46-30.79-49.25-30.79h-67.71v61.55h73.86zM2702.64 1557.55c-30.78 18.47-61.57 30.78-98.5 30.78h-18.47c-55.41 0-98.5-43.1-98.5-104.66v-135.44h61.55v116.97c0 43.1 18.49 67.72 61.57 67.72 36.95 0 67.72-12.3 92.35-24.62v-160.07h55.4v350.92h-55.4v-141.6zM2825.76 1563.7v-6.15c0-67.72 55.4-129.28 129.27-129.28 67.73 0 129.28 55.4 129.28 129.28v30.78h-197c0 36.94 36.95 67.72 73.89 67.72 30.78 0 55.4-12.32 73.86-30.78l36.95 30.78c-24.63 30.78-67.71 49.25-104.66 49.25h-12.32c-67.72 0-129.27-61.57-129.27-135.43v-6.17zm197-18.47c0-36.93-30.78-67.71-67.73-67.71-36.93 0-67.72 30.78-67.72 67.71h135.45zM3145.88 1434.42h55.41v43.1c18.47-30.79 55.4-49.25 92.34-49.25 67.73 0 123.13 61.56 123.13 129.28v18.47c0 67.71-55.4 129.28-123.13 129.28-36.94 0-67.72-18.47-92.34-49.25v123.13h-55.41v-344.77zm209.32 129.28v-6.15c0-43.1-30.78-73.88-73.86-73.88-43.1 0-73.89 36.95-73.89 80.03 0 43.1 30.79 80.03 73.89 86.2 43.08 0 73.86-36.95 73.86-73.88v-12.32zM3484.48 1434.42h55.42v104.66h116.97v-104.66h61.57v264.73h-61.57v-104.67H3539.9v104.67h-55.42zM3786.16 1563.7c0-80.03 61.55-141.58 135.43-141.58 80.03 0 141.6 61.55 141.6 141.58 0 80.03-61.57 141.6-141.6 141.6-73.88 0-135.43-61.57-135.43-141.6zm221.62 0c0-43.08-36.93-80.03-86.18-80.03-43.1 0-80.03 30.78-80.03 80.03v6.17c0 43.08 36.93 80.03 86.18 80.03 43.1 0 80.03-36.95 80.03-80.03v-6.17zM4093.97 1662.2l30.78-36.93c24.62 18.46 49.25 30.78 86.19 30.78 24.61 0 49.25-18.47 49.25-36.93 0-24.64-18.47-30.79-55.42-30.79H4174v-49.25h30.77c24.63 0 43.1-12.31 43.1-30.78s-18.47-30.78-43.1-30.78c-24.62 0-55.4 12.31-73.87 24.63l-24.63-36.95c24.63-24.62 61.57-36.93 104.67-36.93 61.56 0 98.5 30.78 98.5 67.71 0 30.79-12.32 49.25-36.94 61.57 24.62 6.15 43.09 30.78 43.09 61.57 0 43.08-36.94 80.03-104.65 80.03h-6.17c-43.08 0-80.02-12.32-110.8-36.95zM4364.85 1563.7v-6.15c0-67.72 61.56-129.28 129.28-129.28 73.88 0 129.28 55.4 129.28 129.28v30.78h-197c6.15 36.94 36.93 67.72 73.88 67.72h6.15c24.64 0 49.25-12.32 67.72-30.78l36.93 30.78c-24.61 30.78-61.55 49.25-104.65 49.25h-6.15c-73.88 0-135.45-61.57-135.45-135.43v-6.17zm197-18.47c0-36.93-30.76-67.71-67.71-67.71-36.94 0-67.72 30.78-67.72 67.71h135.43zM4684.98 1434.42h61.57l80.03 123.13 86.19-123.13h55.4v264.73h-55.4v-178.53l-86.19 116.96-80.03-116.96v178.53h-61.57zM5054.37 1434.42h55.39v92.35h61.57c55.4 0 104.65 24.63 104.65 86.18 0 55.42-36.93 86.2-98.5 86.2h-123.11v-264.74zm116.96 215.48c30.78 0 49.25-12.32 49.25-36.95 0-30.78-18.47-36.93-49.25-36.93h-61.57v73.88h61.57zM5374.49 1600.65c-30.77-12.32-55.4-43.1-55.4-80.03 0-49.25 36.93-86.2 98.5-86.2h135.43v264.74h-55.4v-92.35h-55.4l-67.73 92.35h-73.87l73.87-98.5zm116.98-36.95v-80.03h-67.71c-30.79 0-49.27 12.31-49.27 36.95 0 30.78 18.48 43.08 49.27 43.08h67.71z"/></g></g></svg>